<svg width="33" height="36" viewBox="0 0 33 36" fill="none" xmlns="http://www.w3.org/2000/svg">
<path d="M4.67096 4.20166H28.129C29.9685 4.20166 31.4642 5.69737 31.4642 7.53686V11.2605H1.33575V7.53686C1.33575 5.69737 2.83146 4.20166 4.67096 4.20166Z" stroke="white" stroke-width="1.82" stroke-linecap="round" stroke-linejoin="round"/>
<path d="M28.129 34.3304H4.67096C2.827 34.3304 1.33575 32.8346 1.33575 30.9951V11.2607H31.4642V30.9951C31.4642 32.8391 29.973 34.3304 28.129 34.3304Z" stroke="white" stroke-width="1.82" stroke-linecap="round" stroke-linejoin="round"/>
<path d="M26.3024 19.1953H14.3024" stroke="white" stroke-width="1.82" stroke-linecap="round" stroke-linejoin="round"/>
<path d="M8.33299 20.9447C9.307 20.9447 10.0966 20.1551 10.0966 19.1811C10.0966 18.2071 9.307 17.4175 8.33299 17.4175C7.35899 17.4175 6.5694 18.2071 6.5694 19.1811C6.5694 20.1551 7.35899 20.9447 8.33299 20.9447Z" stroke="white" stroke-width="1.82" stroke-linecap="round" stroke-linejoin="round"/>
<path d="M26.3024 26.3955H14.3024" stroke="white" stroke-width="1.82" stroke-linecap="round" stroke-linejoin="round"/>
<path d="M8.33299 28.1727C9.307 28.1727 10.0966 27.3831 10.0966 26.4091C10.0966 25.4351 9.307 24.6455 8.33299 24.6455C7.35899 24.6455 6.5694 25.4351 6.5694 26.4091C6.5694 27.3831 7.35899 28.1727 8.33299 28.1727Z" stroke="white" stroke-width="1.82" stroke-linecap="round" stroke-linejoin="round"/>
<path d="M8.33295 1.13428V7.73325" stroke="white" stroke-width="1.82" stroke-linecap="round" stroke-linejoin="round"/>
<path d="M16.4 1.13428V7.73325" stroke="white" stroke-width="1.82" stroke-linecap="round" stroke-linejoin="round"/>
<path d="M24.467 1.13428V7.73325" stroke="white" stroke-width="1.82" stroke-linecap="round" stroke-linejoin="round"/>
</svg>
