<svg width="183" height="28" viewBox="0 0 183 28" fill="none" xmlns="http://www.w3.org/2000/svg">
<path d="M6.20628 16.5H5.41367C5.36679 16.272 5.28476 16.0717 5.16757 15.8991C5.05252 15.7266 4.91189 15.5817 4.7457 15.4645C4.58164 15.3452 4.39946 15.2557 4.19918 15.196C3.99889 15.1364 3.79009 15.1065 3.57276 15.1065C3.17645 15.1065 2.81743 15.2067 2.4957 15.407C2.1761 15.6072 1.92148 15.9023 1.73185 16.2923C1.54435 16.6822 1.4506 17.1605 1.4506 17.7273C1.4506 18.294 1.54435 18.7724 1.73185 19.1623C1.92148 19.5522 2.1761 19.8473 2.4957 20.0476C2.81743 20.2479 3.17645 20.348 3.57276 20.348C3.79009 20.348 3.99889 20.3182 4.19918 20.2585C4.39946 20.1989 4.58164 20.1104 4.7457 19.9933C4.91189 19.8739 5.05252 19.728 5.16757 19.5554C5.28476 19.3807 5.36679 19.1804 5.41367 18.9545H6.20628C6.14662 19.2891 6.03796 19.5884 5.88029 19.8526C5.72262 20.1168 5.52659 20.3416 5.29222 20.527C5.05784 20.7102 4.7947 20.8498 4.5028 20.9457C4.21303 21.0415 3.90301 21.0895 3.57276 21.0895C3.01452 21.0895 2.51807 20.9531 2.08341 20.6804C1.64875 20.4077 1.30678 20.0199 1.05749 19.517C0.808198 19.0142 0.683554 18.4176 0.683554 17.7273C0.683554 17.0369 0.808198 16.4403 1.05749 15.9375C1.30678 15.4347 1.64875 15.0469 2.08341 14.7741C2.51807 14.5014 3.01452 14.3651 3.57276 14.3651C3.90301 14.3651 4.21303 14.413 4.5028 14.5089C4.7947 14.6048 5.05784 14.7454 5.29222 14.9308C5.52659 15.114 5.72262 15.3377 5.88029 15.6019C6.03796 15.864 6.14662 16.1634 6.20628 16.5ZM12.9198 17.7273C12.9198 18.4176 12.7952 19.0142 12.5459 19.517C12.2966 20.0199 11.9546 20.4077 11.52 20.6804C11.0853 20.9531 10.5888 21.0895 10.0306 21.0895C9.47237 21.0895 8.97592 20.9531 8.54126 20.6804C8.1066 20.4077 7.76463 20.0199 7.51534 19.517C7.26605 19.0142 7.1414 18.4176 7.1414 17.7273C7.1414 17.0369 7.26605 16.4403 7.51534 15.9375C7.76463 15.4347 8.1066 15.0469 8.54126 14.7741C8.97592 14.5014 9.47237 14.3651 10.0306 14.3651C10.5888 14.3651 11.0853 14.5014 11.52 14.7741C11.9546 15.0469 12.2966 15.4347 12.5459 15.9375C12.7952 16.4403 12.9198 17.0369 12.9198 17.7273ZM12.1528 17.7273C12.1528 17.1605 12.058 16.6822 11.8683 16.2923C11.6808 15.9023 11.4262 15.6072 11.1045 15.407C10.7849 15.2067 10.4269 15.1065 10.0306 15.1065C9.6343 15.1065 9.27528 15.2067 8.95355 15.407C8.63395 15.6072 8.37933 15.9023 8.1897 16.2923C8.0022 16.6822 7.90845 17.1605 7.90845 17.7273C7.90845 18.294 8.0022 18.7724 8.1897 19.1623C8.37933 19.5522 8.63395 19.8473 8.95355 20.0476C9.27528 20.2479 9.6343 20.348 10.0306 20.348C10.4269 20.348 10.7849 20.2479 11.1045 20.0476C11.4262 19.8473 11.6808 19.5522 11.8683 19.1623C12.058 18.7724 12.1528 18.294 12.1528 17.7273ZM19.3529 14.4545V21H18.5859L15.0191 15.8608H14.9552V21H14.1626V14.4545H14.9296L18.5091 19.6065H18.5731V14.4545H19.3529ZM24.4285 16.0909C24.3901 15.767 24.2346 15.5156 23.9618 15.3366C23.6891 15.1577 23.3546 15.0682 22.9583 15.0682C22.6685 15.0682 22.415 15.1151 22.1976 15.2088C21.9824 15.3026 21.8141 15.4315 21.6927 15.5955C21.5734 15.7596 21.5137 15.946 21.5137 16.1548C21.5137 16.3295 21.5552 16.4798 21.6383 16.6055C21.7236 16.729 21.8322 16.8324 21.9643 16.9155C22.0964 16.9964 22.2349 17.0636 22.3798 17.1168C22.5247 17.168 22.6579 17.2095 22.7793 17.2415L23.4441 17.4205C23.6145 17.4652 23.8042 17.527 24.013 17.6058C24.2239 17.6847 24.4253 17.7923 24.617 17.9286C24.8109 18.0629 24.9707 18.2354 25.0964 18.4464C25.2221 18.6573 25.285 18.9162 25.285 19.223C25.285 19.5767 25.1923 19.8963 25.0069 20.1818C24.8237 20.4673 24.5552 20.6942 24.2016 20.8626C23.85 21.0309 23.4228 21.1151 22.9199 21.1151C22.4512 21.1151 22.0453 21.0394 21.7023 20.8881C21.3614 20.7369 21.0929 20.5259 20.8969 20.2553C20.703 19.9847 20.5932 19.6705 20.5677 19.3125H21.3859C21.4072 19.5597 21.4903 19.7642 21.6351 19.9261C21.7822 20.0859 21.9675 20.2053 22.1913 20.2841C22.4171 20.3608 22.66 20.3991 22.9199 20.3991C23.2225 20.3991 23.4942 20.3501 23.7349 20.2521C23.9757 20.152 24.1664 20.0135 24.307 19.8366C24.4476 19.6577 24.518 19.4489 24.518 19.2102C24.518 18.9929 24.4572 18.8161 24.3358 18.6797C24.2143 18.5433 24.0545 18.4325 23.8564 18.3473C23.6582 18.2621 23.4441 18.1875 23.214 18.1236L22.4086 17.8935C21.8972 17.7464 21.4924 17.5366 21.1941 17.2638C20.8958 16.9911 20.7466 16.6342 20.7466 16.1932C20.7466 15.8267 20.8457 15.5071 21.0439 15.2344C21.2442 14.9595 21.5126 14.7464 21.8493 14.5952C22.1881 14.4418 22.5663 14.3651 22.9839 14.3651C23.4057 14.3651 23.7807 14.4407 24.1089 14.592C24.437 14.7411 24.6969 14.9457 24.8887 15.2056C25.0826 15.4656 25.1849 15.7607 25.1955 16.0909H24.4285ZM26.1402 15.1577V14.4545H31.0493V15.1577H28.9911V21H28.1985V15.1577H26.1402ZM32.1826 21V14.4545H34.3942C34.9056 14.4545 35.3253 14.5419 35.6535 14.7166C35.9816 14.8892 36.2245 15.1268 36.3822 15.4293C36.5398 15.7319 36.6187 16.076 36.6187 16.4616C36.6187 16.8473 36.5398 17.1893 36.3822 17.4876C36.2245 17.7859 35.9827 18.0202 35.6567 18.1907C35.3307 18.359 34.9141 18.4432 34.407 18.4432H32.6173V17.7273H34.3815C34.7309 17.7273 35.0121 17.6761 35.2252 17.5739C35.4404 17.4716 35.5959 17.3267 35.6918 17.1392C35.7898 16.9496 35.8388 16.7237 35.8388 16.4616C35.8388 16.1996 35.7898 15.9705 35.6918 15.7745C35.5938 15.5785 35.4372 15.4272 35.222 15.3207C35.0068 15.212 34.7224 15.1577 34.3687 15.1577H32.9752V21H32.1826ZM35.2636 18.0597L36.8744 21H35.9539L34.3687 18.0597H35.2636ZM42.1449 14.4545H42.9375V18.7884C42.9375 19.2358 42.832 19.6353 42.6211 19.9869C42.4123 20.3363 42.1172 20.6122 41.7358 20.8146C41.3544 21.0149 40.907 21.1151 40.3935 21.1151C39.88 21.1151 39.4325 21.0149 39.0511 20.8146C38.6697 20.6122 38.3736 20.3363 38.1626 19.9869C37.9538 19.6353 37.8494 19.2358 37.8494 18.7884V14.4545H38.642V18.7244C38.642 19.044 38.7124 19.3285 38.853 19.5778C38.9936 19.8249 39.1939 20.0199 39.4538 20.1626C39.7159 20.3033 40.0291 20.3736 40.3935 20.3736C40.7578 20.3736 41.071 20.3033 41.3331 20.1626C41.5952 20.0199 41.7955 19.8249 41.9339 19.5778C42.0746 19.3285 42.1449 19.044 42.1449 18.7244V14.4545ZM43.8678 14.4545H44.7755L46.5908 17.5099H46.6675L48.4829 14.4545H49.3906L47.0255 18.3026V21H46.2329V18.3026L43.8678 14.4545ZM50.3257 21V14.4545H54.276V15.1577H51.1183V17.3693H54.0714V18.0724H51.1183V20.2969H54.3271V21H50.3257Z" fill="#003057"/>
<path d="M68.0293 6.65166H71.9976V8.6182C71.9976 8.8771 72.318 8.99553 72.4851 8.79722C72.7726 8.45845 73.0958 8.14722 73.4655 7.84976C74.4569 7.05103 75.9275 6.2523 77.9514 6.2523C82.3168 6.2523 85.4936 9.40591 85.4936 14.6362V25.813H81.5253V14.6362C81.5253 11.8021 79.7397 10.0449 77.1599 10.0449C74.183 10.0449 72.0003 12.24 72.0003 15.435V25.813H68.0293V6.65166Z" fill="#003057"/>
<path d="M120.041 26.2123C116.232 26.2123 114.088 24.0172 114.088 19.8252V10.4443H110.517V6.65166H112.699C114.449 6.65166 114.485 6.65166 114.485 4.45653V0.264561H118.056V6.65166H122.421V10.4443H118.056V19.4259C118.056 21.4227 118.968 22.4197 120.836 22.4197H122.46V26.2123H120.041Z" fill="#003057"/>
<path d="M90.5464 26.5153L87.7803 23.7308L95.2377 16.2309L87.7803 8.73112L90.5464 5.94933L100.77 16.2309L90.5464 26.5153Z" fill="#003057"/>
<path d="M108.23 8.63472L105.469 5.94933L99.4196 12.0307L102.153 14.7795L108.23 8.63472Z" fill="#003057"/>
<path d="M99.4497 20.4036L105.557 26.5153L108.23 23.739L102.183 17.6549L99.4497 20.4036Z" fill="#003057"/>
<path d="M133.176 17.9909C132.675 17.9909 132.217 17.9 131.809 17.7155C131.401 17.5337 131.051 17.2776 130.766 16.947C130.478 16.6165 130.257 16.2254 130.098 15.7682C129.939 15.3138 129.86 14.8153 129.86 14.2754C129.86 13.7356 129.936 13.2591 130.087 12.8074C130.237 12.3557 130.459 11.9619 130.744 11.6286C131.032 11.2953 131.382 11.0337 131.798 10.8409C132.215 10.6481 132.686 10.5517 133.214 10.5517C133.631 10.5517 134.003 10.6095 134.334 10.7197C134.666 10.8326 134.948 10.9896 135.186 11.1934C135.424 11.3972 135.616 11.6369 135.767 11.915C135.915 12.1932 136.013 12.4962 136.06 12.8212H135.189C135.104 12.3777 134.89 12.0169 134.551 11.7415C134.211 11.4661 133.759 11.3284 133.198 11.3284C132.809 11.3284 132.464 11.4027 132.163 11.5542C131.861 11.7057 131.609 11.9095 131.401 12.1739C131.193 12.4356 131.037 12.7496 130.93 13.1076C130.823 13.4684 130.771 13.8568 130.771 14.2754C130.771 14.6941 130.829 15.1155 130.944 15.4735C131.059 15.8343 131.223 16.1401 131.434 16.399C131.645 16.6551 131.9 16.8534 132.201 16.9939C132.502 17.1343 132.836 17.2032 133.206 17.2032C133.543 17.2032 133.836 17.1509 134.082 17.0434C134.329 16.9388 134.537 16.7956 134.707 16.6165C134.874 16.4375 135.005 16.2282 135.099 15.9886C135.192 15.7489 135.246 15.5011 135.266 15.2422H136.147C136.142 15.6002 136.06 15.961 135.904 16.3218C135.748 16.6826 135.545 16.9911 135.296 17.2418C134.786 17.7403 134.08 17.9882 133.176 17.9882" fill="#003057"/>
<path d="M139.206 17.9689C138.823 17.9689 138.481 17.8973 138.177 17.754C137.873 17.6108 137.613 17.4153 137.399 17.1701C137.185 16.925 137.018 16.6358 136.903 16.3081C136.788 15.9776 136.731 15.6278 136.731 15.2559C136.731 14.8841 136.788 14.5316 136.903 14.2038C137.018 13.8733 137.183 13.5869 137.399 13.3417C137.613 13.0966 137.873 12.9011 138.177 12.7578C138.481 12.6146 138.823 12.543 139.206 12.543C139.59 12.543 139.932 12.6146 140.236 12.7578C140.54 12.9011 140.798 13.0939 141.014 13.3417C141.228 13.5869 141.392 13.8761 141.504 14.2038C141.616 14.5343 141.674 14.8841 141.674 15.2559C141.674 15.6278 141.616 15.9803 141.504 16.3081C141.392 16.6386 141.228 16.925 141.014 17.1701C140.8 17.4153 140.54 17.6108 140.236 17.754C139.932 17.8973 139.59 17.9689 139.206 17.9689ZM139.206 17.2941C139.478 17.2941 139.716 17.2418 139.919 17.1343C140.124 17.0269 140.294 16.8837 140.433 16.6992C140.573 16.5174 140.677 16.3026 140.746 16.0547C140.814 15.8095 140.85 15.5424 140.85 15.2559C140.85 14.9695 140.814 14.7023 140.746 14.4572C140.677 14.2121 140.573 13.9945 140.433 13.8072C140.294 13.6199 140.124 13.4739 139.919 13.3693C139.713 13.2619 139.475 13.2095 139.206 13.2095C138.938 13.2095 138.697 13.2619 138.489 13.3693C138.281 13.4767 138.108 13.6227 137.969 13.8072C137.829 13.9945 137.725 14.2093 137.656 14.4572C137.588 14.7023 137.552 14.9695 137.552 15.2559C137.552 15.5424 137.588 15.8095 137.656 16.0547C137.725 16.2998 137.829 16.5146 137.969 16.6992C138.108 16.8809 138.281 17.0269 138.489 17.1343C138.697 17.2418 138.935 17.2941 139.206 17.2941Z" fill="#003057"/>
<path d="M143.265 13.3583H143.284C143.468 13.1131 143.692 12.9148 143.953 12.7661C144.213 12.6174 144.533 12.543 144.908 12.543C145.442 12.543 145.864 12.6835 146.171 12.9672C146.478 13.2508 146.631 13.6612 146.631 14.2011V17.8284H145.828V14.2672C145.828 13.9284 145.727 13.6667 145.522 13.4877C145.316 13.3087 145.034 13.2178 144.67 13.2178C144.465 13.2178 144.278 13.2536 144.106 13.3225C143.933 13.3913 143.785 13.4905 143.659 13.6117C143.534 13.7356 143.438 13.8843 143.366 14.0606C143.298 14.2369 143.262 14.4324 143.262 14.6445V17.8257H142.46V12.678H143.262V13.3555L143.265 13.3583Z" fill="#003057"/>
<path d="M149.621 17.9689C148.915 17.9689 148.37 17.8119 147.987 17.4951C147.603 17.1812 147.392 16.7295 147.354 16.1456H148.175C148.203 16.3714 148.258 16.5587 148.345 16.7019C148.43 16.8479 148.537 16.9636 148.666 17.0517C148.794 17.1371 148.942 17.2004 149.107 17.2362C149.271 17.272 149.449 17.2913 149.641 17.2913C150.062 17.2913 150.366 17.2087 150.553 17.0462C150.736 16.8837 150.829 16.6799 150.829 16.4403C150.829 16.2943 150.805 16.1731 150.755 16.0739C150.706 15.9776 150.627 15.8949 150.517 15.8288C150.407 15.7627 150.271 15.7049 150.101 15.6581C149.934 15.6112 149.728 15.5617 149.493 15.5093C149.241 15.457 149 15.3992 148.77 15.3386C148.54 15.278 148.334 15.1926 148.162 15.0824C147.987 14.9722 147.847 14.8263 147.74 14.6472C147.633 14.4682 147.581 14.2369 147.581 13.9559C147.581 13.5235 147.737 13.1765 148.052 12.9203C148.364 12.6642 148.822 12.5347 149.424 12.5347C150.065 12.5347 150.544 12.678 150.865 12.9616C151.185 13.2481 151.374 13.6419 151.434 14.146H150.613C150.572 13.8072 150.457 13.5593 150.265 13.4051C150.073 13.2481 149.786 13.171 149.402 13.171C149.019 13.171 148.77 13.2426 148.611 13.3858C148.452 13.529 148.373 13.7053 148.373 13.9119C148.373 14.0523 148.403 14.168 148.463 14.2561C148.523 14.347 148.611 14.4214 148.731 14.482C148.849 14.5426 148.994 14.5922 149.167 14.6307C149.339 14.672 149.534 14.7134 149.75 14.7602C150.008 14.8125 150.251 14.8731 150.479 14.9364C150.706 14.9998 150.909 15.0907 151.084 15.2064C151.259 15.322 151.396 15.4735 151.495 15.6608C151.593 15.8481 151.643 16.0905 151.643 16.3907C151.643 16.6496 151.593 16.8782 151.495 17.0765C151.396 17.272 151.256 17.4373 151.078 17.5668C150.9 17.6962 150.687 17.7954 150.44 17.8615C150.194 17.9276 149.92 17.9606 149.624 17.9606" fill="#003057"/>
<path d="M151.979 12.6807H152.722V11.0585H153.524V12.6807H154.515V13.339H153.524V16.6579C153.524 16.8369 153.568 16.9581 153.658 17.0269C153.749 17.0958 153.875 17.1316 154.039 17.1316C154.118 17.1316 154.198 17.1233 154.277 17.1068C154.357 17.0903 154.42 17.0765 154.466 17.0627H154.496V17.7596C154.403 17.7788 154.305 17.7954 154.195 17.8091C154.085 17.8229 153.973 17.8284 153.853 17.8284C153.521 17.8284 153.253 17.754 153.042 17.6053C152.831 17.4566 152.724 17.2004 152.724 16.8396V13.339H151.982V12.6807H151.979Z" fill="#003057"/>
<path d="M156.156 13.5373C156.307 13.2839 156.515 13.0691 156.775 12.89C157.035 12.711 157.336 12.6201 157.681 12.6201C157.753 12.6201 157.813 12.6256 157.859 12.6339C157.906 12.6449 157.955 12.6587 158.007 12.678V13.4547H157.977C157.917 13.4354 157.862 13.4216 157.813 13.4161C157.763 13.4106 157.698 13.4051 157.618 13.4051C157.421 13.4051 157.232 13.4409 157.054 13.5153C156.876 13.5896 156.717 13.6915 156.578 13.8237C156.438 13.9559 156.331 14.1212 156.252 14.3167C156.172 14.5123 156.134 14.7299 156.134 14.9695V17.8284H155.332V12.6807H156.134V13.5373H156.156Z" fill="#003057"/>
<path d="M161.978 17.8312V17.1233H161.959C161.776 17.3767 161.565 17.5805 161.329 17.7348C161.094 17.8918 160.79 17.9689 160.414 17.9689C159.886 17.9689 159.467 17.8201 159.157 17.5199C158.848 17.2197 158.692 16.8011 158.692 16.2612V12.6835H159.494V16.2447C159.494 16.5835 159.596 16.8451 159.796 17.0297C159.998 17.2142 160.28 17.3051 160.642 17.3051C160.847 17.3051 161.031 17.2693 161.198 17.1949C161.362 17.1206 161.502 17.0187 161.619 16.8892C161.734 16.7598 161.825 16.6083 161.888 16.4348C161.951 16.2612 161.981 16.0712 161.981 15.8646V12.6835H162.783V17.8312H161.978Z" fill="#003057"/>
<path d="M163.86 10.7114H164.662V11.7085H163.86V10.7114ZM163.86 12.6807H164.662V17.8284H163.86V12.6807Z" fill="#003057"/>
<path d="M165.741 12.6807H166.544V13.4189H166.563C166.722 13.1655 166.93 12.9589 167.193 12.7909C167.453 12.6256 167.746 12.543 168.069 12.543C168.392 12.543 168.661 12.6201 168.891 12.7771C169.121 12.9341 169.293 13.16 169.405 13.4602H169.425C169.589 13.1627 169.813 12.9341 170.093 12.7771C170.372 12.6201 170.673 12.543 170.988 12.543C171.443 12.543 171.815 12.6835 172.108 12.9672C172.399 13.2508 172.544 13.6612 172.544 14.2011V17.8284H171.741V14.2369C171.741 13.9174 171.648 13.6667 171.465 13.4877C171.281 13.3087 171.06 13.2178 170.802 13.2178C170.638 13.2178 170.479 13.2536 170.326 13.3225C170.175 13.3913 170.041 13.4905 169.926 13.6117C169.811 13.7356 169.718 13.8816 169.649 14.0523C169.581 14.2231 169.545 14.4076 169.545 14.6087V17.8284H168.743V14.2369C168.743 13.9174 168.66 13.6667 168.499 13.4877C168.337 13.3087 168.124 13.2178 167.861 13.2178C167.702 13.2178 167.546 13.2536 167.39 13.3225C167.234 13.3913 167.094 13.4905 166.968 13.6117C166.842 13.7356 166.741 13.8816 166.661 14.0523C166.582 14.2231 166.544 14.4076 166.544 14.6087V17.8284H165.741V12.6807Z" fill="#003057"/>
<path d="M175.781 17.9689C175.398 17.9689 175.055 17.8973 174.751 17.754C174.447 17.6108 174.187 17.4153 173.973 17.1701C173.76 16.925 173.593 16.6358 173.478 16.3081C173.363 15.9776 173.305 15.6278 173.305 15.2559C173.305 14.8841 173.363 14.5316 173.478 14.2038C173.593 13.8733 173.757 13.5869 173.973 13.3417C174.187 13.0966 174.447 12.9011 174.751 12.7578C175.055 12.6146 175.398 12.543 175.781 12.543C176.164 12.543 176.507 12.6146 176.811 12.7578C177.115 12.9011 177.372 13.0939 177.588 13.3417C177.802 13.5869 177.966 13.8761 178.079 14.2038C178.191 14.5343 178.248 14.8841 178.248 15.2559C178.248 15.6278 178.191 15.9803 178.079 16.3081C177.966 16.6386 177.802 16.925 177.588 17.1701C177.375 17.4153 177.115 17.6108 176.811 17.754C176.507 17.8973 176.164 17.9689 175.781 17.9689ZM175.781 17.2941C176.052 17.2941 176.29 17.2418 176.493 17.1343C176.698 17.0269 176.868 16.8837 177.008 16.6992C177.148 16.5174 177.252 16.3026 177.32 16.0547C177.389 15.8095 177.424 15.5424 177.424 15.2559C177.424 14.9695 177.389 14.7023 177.32 14.4572C177.252 14.2121 177.148 13.9945 177.008 13.8072C176.868 13.6199 176.698 13.4739 176.493 13.3693C176.288 13.2619 176.049 13.2095 175.781 13.2095C175.513 13.2095 175.272 13.2619 175.063 13.3693C174.855 13.4767 174.683 13.6227 174.543 13.8072C174.403 13.9945 174.299 14.2093 174.231 14.4572C174.162 14.7023 174.127 14.9695 174.127 15.2559C174.127 15.5424 174.162 15.8095 174.231 16.0547C174.299 16.2998 174.403 16.5146 174.543 16.6992C174.683 16.8809 174.855 17.0269 175.063 17.1343C175.272 17.2418 175.51 17.2941 175.781 17.2941Z" fill="#003057"/>
<path d="M180.979 17.9689C180.272 17.9689 179.727 17.8119 179.344 17.4951C178.961 17.1812 178.75 16.7295 178.711 16.1456H179.533C179.56 16.3714 179.615 16.5587 179.703 16.7019C179.788 16.8479 179.894 16.9636 180.023 17.0517C180.152 17.1371 180.3 17.2004 180.464 17.2362C180.628 17.272 180.806 17.2913 180.998 17.2913C181.42 17.2913 181.724 17.2087 181.91 17.0462C182.094 16.8837 182.187 16.6799 182.187 16.4403C182.187 16.2943 182.162 16.1731 182.113 16.0739C182.063 15.9776 181.984 15.8949 181.874 15.8288C181.765 15.7627 181.628 15.7049 181.458 15.6581C181.291 15.6112 181.086 15.5617 180.85 15.5093C180.598 15.457 180.357 15.3992 180.127 15.3386C179.897 15.278 179.692 15.1926 179.519 15.0824C179.344 14.9722 179.204 14.8263 179.097 14.6472C178.991 14.4682 178.939 14.2369 178.939 13.9559C178.939 13.5235 179.095 13.1765 179.41 12.9203C179.722 12.6642 180.179 12.5347 180.782 12.5347C181.423 12.5347 181.902 12.678 182.222 12.9616C182.543 13.2481 182.732 13.6419 182.792 14.146H181.97C181.932 13.8072 181.814 13.5593 181.622 13.4051C181.431 13.2481 181.143 13.171 180.76 13.171C180.376 13.171 180.127 13.2426 179.968 13.3858C179.809 13.529 179.73 13.7053 179.73 13.9119C179.73 14.0523 179.76 14.168 179.82 14.2561C179.881 14.347 179.968 14.4214 180.089 14.482C180.207 14.5426 180.352 14.5922 180.524 14.6307C180.697 14.672 180.891 14.7134 181.108 14.7602C181.365 14.8125 181.609 14.8731 181.836 14.9364C182.063 14.9998 182.266 15.0907 182.441 15.2064C182.617 15.322 182.754 15.4735 182.852 15.6608C182.951 15.8481 183 16.0905 183 16.3907C183 16.6496 182.951 16.8782 182.852 17.0765C182.754 17.272 182.614 17.4373 182.436 17.5668C182.258 17.6962 182.044 17.7954 181.798 17.8615C181.551 17.9276 181.277 17.9606 180.982 17.9606" fill="#003057"/>
<path d="M130.007 20.9324H130.81V21.6596H130.829C131.021 21.3952 131.248 21.1831 131.511 21.0261C131.774 20.8691 132.094 20.792 132.472 20.792C132.795 20.792 133.094 20.8526 133.362 20.9765C133.633 21.1005 133.863 21.2767 134.055 21.5053C134.247 21.7339 134.397 22.0204 134.504 22.3591C134.614 22.6979 134.669 23.0808 134.669 23.5077C134.669 23.9346 134.617 24.2954 134.515 24.6314C134.414 24.9674 134.266 25.2539 134.074 25.488C133.883 25.7248 133.65 25.9066 133.37 26.0306C133.094 26.1573 132.782 26.2206 132.439 26.2206C132.097 26.2206 131.785 26.1628 131.527 26.0526C131.27 25.9397 131.034 25.7441 130.823 25.4659H130.804V27.7354H130.002V20.9352L130.007 20.9324ZM132.385 25.5431C132.628 25.5431 132.845 25.4907 133.028 25.3888C133.212 25.2869 133.365 25.1437 133.488 24.9647C133.611 24.7856 133.702 24.5708 133.759 24.3257C133.82 24.0806 133.85 23.8106 133.85 23.5159C133.85 23.2212 133.82 22.9623 133.759 22.7117C133.699 22.4611 133.609 22.2462 133.488 22.0617C133.365 21.8799 133.214 21.7367 133.034 21.632C132.853 21.5301 132.639 21.4778 132.395 21.4778C132.119 21.4778 131.875 21.5301 131.667 21.6375C131.459 21.7449 131.289 21.8909 131.158 22.0755C131.026 22.2627 130.928 22.4776 130.862 22.7255C130.796 22.9706 130.763 23.235 130.763 23.5132C130.763 23.7914 130.793 24.0558 130.854 24.3009C130.914 24.546 131.007 24.7609 131.136 24.9454C131.264 25.1272 131.431 25.2731 131.637 25.3806C131.842 25.488 132.091 25.5403 132.39 25.5403" fill="#003057"/>
<path d="M139.483 26.0829C138.974 26.0829 138.681 25.8267 138.601 25.3172H138.59C138.511 25.4164 138.418 25.5155 138.314 25.6119C138.207 25.7083 138.086 25.7964 137.947 25.8763C137.807 25.9562 137.651 26.0333 137.476 26.1104C137.3 26.1876 137.103 26.2261 136.887 26.2261C136.643 26.2261 136.416 26.1986 136.205 26.1407C135.994 26.0829 135.811 25.9948 135.654 25.8736C135.498 25.7524 135.378 25.6009 135.287 25.4191C135.197 25.2373 135.153 25.0198 135.153 24.7719C135.153 24.4606 135.208 24.2072 135.32 24.0117C135.433 23.8161 135.589 23.6564 135.786 23.5352C135.983 23.414 136.221 23.3204 136.495 23.257C136.769 23.1937 137.065 23.1331 137.383 23.0808C137.561 23.0532 137.725 23.0257 137.878 22.9954C138.029 22.9651 138.16 22.9238 138.27 22.8742C138.379 22.8246 138.464 22.7558 138.522 22.6704C138.582 22.585 138.612 22.4721 138.612 22.3316C138.612 22.0341 138.514 21.8083 138.316 21.6486C138.119 21.4888 137.834 21.4117 137.465 21.4117C137.048 21.4117 136.736 21.5026 136.523 21.6844C136.312 21.8661 136.199 22.1553 136.186 22.5464H135.413C135.419 22.3013 135.465 22.07 135.553 21.8551C135.638 21.6403 135.767 21.4558 135.934 21.3015C136.101 21.15 136.314 21.0288 136.566 20.938C136.821 20.8498 137.117 20.803 137.454 20.803C137.725 20.803 137.974 20.8305 138.207 20.8884C138.437 20.9435 138.637 21.0371 138.807 21.161C138.974 21.2877 139.108 21.453 139.204 21.6623C139.3 21.8716 139.346 22.1278 139.346 22.4335V24.8793C139.346 25.0914 139.382 25.2484 139.456 25.3475C139.502 25.4219 139.582 25.4577 139.694 25.4577C139.754 25.4577 139.82 25.4467 139.891 25.4274H139.921V26.014C139.869 26.0333 139.809 26.0526 139.743 26.0691C139.678 26.0856 139.593 26.0939 139.486 26.0939M137.068 25.6037C137.33 25.6037 137.563 25.5596 137.76 25.4687C137.958 25.3778 138.119 25.2676 138.245 25.1354C138.371 25.0032 138.464 24.8545 138.527 24.692C138.59 24.5295 138.62 24.3725 138.62 24.2183V23.3424C138.489 23.4278 138.314 23.5022 138.1 23.5655C137.886 23.6289 137.67 23.6812 137.451 23.7197C137.254 23.7583 137.065 23.7996 136.887 23.8382C136.709 23.8767 136.555 23.9373 136.427 24.0117C136.298 24.0888 136.197 24.1852 136.12 24.3064C136.043 24.4248 136.005 24.5791 136.005 24.7636C136.005 24.9371 136.035 25.0776 136.098 25.1878C136.161 25.2979 136.241 25.3833 136.342 25.4412C136.44 25.5017 136.553 25.5431 136.679 25.5651C136.805 25.5871 136.933 25.6009 137.065 25.6009" fill="#003057"/>
<path d="M141.323 21.789C141.474 21.5356 141.682 21.3208 141.942 21.1418C142.203 20.9627 142.504 20.8719 142.849 20.8719C142.92 20.8719 142.98 20.8774 143.027 20.8856C143.073 20.8966 143.123 20.9104 143.175 20.9297V21.7064H143.145C143.084 21.6871 143.03 21.6733 142.98 21.6678C142.931 21.6623 142.865 21.6568 142.786 21.6568C142.589 21.6568 142.4 21.6926 142.222 21.767C142.044 21.8413 141.885 21.9433 141.745 22.0755C141.606 22.2077 141.499 22.3729 141.419 22.5685C141.34 22.764 141.302 22.9816 141.302 23.2212V26.0801H140.499V20.9324H141.302V21.789H141.323Z" fill="#003057"/>
<path d="M147.71 26.0829C147.201 26.0829 146.908 25.8267 146.828 25.3172H146.817C146.738 25.4164 146.645 25.5155 146.541 25.6119C146.434 25.7083 146.313 25.7964 146.174 25.8763C146.034 25.9562 145.878 26.0333 145.703 26.1104C145.527 26.1876 145.33 26.2261 145.114 26.2261C144.87 26.2261 144.643 26.1986 144.432 26.1407C144.221 26.0829 144.037 25.9948 143.881 25.8736C143.725 25.7524 143.605 25.6009 143.514 25.4191C143.424 25.2373 143.38 25.0198 143.38 24.7719C143.38 24.4606 143.435 24.2072 143.547 24.0117C143.659 23.8161 143.816 23.6564 144.013 23.5352C144.21 23.414 144.448 23.3204 144.722 23.257C144.996 23.1937 145.292 23.1331 145.609 23.0808C145.787 23.0532 145.952 23.0257 146.105 22.9954C146.256 22.9651 146.387 22.9238 146.497 22.8742C146.606 22.8246 146.691 22.7558 146.749 22.6704C146.809 22.585 146.839 22.4721 146.839 22.3316C146.839 22.0341 146.74 21.8083 146.543 21.6486C146.346 21.4888 146.061 21.4117 145.692 21.4117C145.275 21.4117 144.963 21.5026 144.749 21.6844C144.539 21.8661 144.426 22.1553 144.413 22.5464H143.64C143.646 22.3013 143.692 22.07 143.78 21.8551C143.865 21.6403 143.994 21.4558 144.161 21.3015C144.328 21.15 144.541 21.0288 144.793 20.938C145.048 20.8498 145.344 20.803 145.681 20.803C145.952 20.803 146.201 20.8305 146.434 20.8884C146.664 20.9435 146.864 21.0371 147.033 21.161C147.201 21.2877 147.335 21.453 147.431 21.6623C147.526 21.8716 147.573 22.1278 147.573 22.4335V24.8793C147.573 25.0914 147.609 25.2484 147.683 25.3475C147.729 25.4219 147.809 25.4577 147.921 25.4577C147.981 25.4577 148.047 25.4467 148.118 25.4274H148.148V26.014C148.096 26.0333 148.036 26.0526 147.97 26.0691C147.904 26.0856 147.819 26.0939 147.713 26.0939M145.294 25.6037C145.557 25.6037 145.79 25.5596 145.987 25.4687C146.185 25.3778 146.346 25.2676 146.472 25.1354C146.598 25.0032 146.691 24.8545 146.754 24.692C146.817 24.5295 146.847 24.3725 146.847 24.2183V23.3424C146.716 23.4278 146.541 23.5022 146.327 23.5655C146.113 23.6289 145.897 23.6812 145.678 23.7197C145.481 23.7583 145.292 23.7996 145.114 23.8382C144.936 23.8767 144.782 23.9373 144.654 24.0117C144.525 24.0888 144.424 24.1852 144.347 24.3064C144.27 24.4248 144.232 24.5791 144.232 24.7636C144.232 24.9371 144.262 25.0776 144.325 25.1878C144.388 25.2979 144.467 25.3833 144.569 25.4412C144.667 25.5017 144.78 25.5431 144.906 25.5651C145.032 25.5871 145.16 25.6009 145.292 25.6009" fill="#003057"/>
<path d="M152.237 26.2206C151.53 26.2206 150.985 26.0636 150.602 25.7469C150.219 25.4329 150.008 24.9812 149.969 24.3973H150.791C150.818 24.6231 150.873 24.8104 150.961 24.9536C151.046 25.0996 151.152 25.2153 151.281 25.3034C151.41 25.3888 151.558 25.4522 151.722 25.488C151.886 25.5238 152.064 25.5431 152.256 25.5431C152.678 25.5431 152.982 25.4604 153.168 25.2979C153.352 25.1354 153.445 24.9316 153.445 24.692C153.445 24.546 153.42 24.4248 153.371 24.3257C153.321 24.2293 153.242 24.1467 153.132 24.0806C153.023 24.0145 152.886 23.9566 152.716 23.9098C152.549 23.863 152.344 23.8134 152.108 23.7611C151.856 23.7087 151.615 23.6509 151.385 23.5903C151.155 23.5297 150.95 23.4443 150.777 23.3342C150.602 23.224 150.462 23.078 150.355 22.899C150.249 22.72 150.197 22.4886 150.197 22.2077C150.197 21.7752 150.353 21.4282 150.668 21.1721C150.98 20.9159 151.437 20.7865 152.04 20.7865C152.681 20.7865 153.16 20.9297 153.48 21.2134C153.801 21.4998 153.99 21.8937 154.05 22.3977H153.228C153.19 22.0589 153.072 21.8111 152.88 21.6568C152.689 21.4998 152.401 21.4227 152.018 21.4227C151.634 21.4227 151.385 21.4943 151.226 21.6375C151.068 21.7808 150.988 21.957 150.988 22.1636C150.988 22.3041 151.018 22.4197 151.078 22.5079C151.139 22.5988 151.226 22.6731 151.347 22.7337C151.465 22.7943 151.61 22.8439 151.782 22.8825C151.955 22.9238 152.149 22.9651 152.366 23.0119C152.623 23.0642 152.867 23.1248 153.094 23.1882C153.321 23.2515 153.524 23.3424 153.699 23.4581C153.875 23.5738 154.012 23.7253 154.11 23.9125C154.209 24.0998 154.258 24.3422 154.258 24.6424C154.258 24.9013 154.209 25.1299 154.11 25.3282C154.012 25.5238 153.872 25.689 153.694 25.8185C153.516 25.9479 153.302 26.0471 153.056 26.1132C152.809 26.1793 152.535 26.2123 152.24 26.2123" fill="#003057"/>
<path d="M157.306 26.2206C156.923 26.2206 156.58 26.149 156.276 26.0058C155.972 25.8626 155.712 25.667 155.499 25.4219C155.285 25.1767 155.118 24.8875 155.003 24.5598C154.888 24.2293 154.83 23.8795 154.83 23.5077C154.83 23.1358 154.888 22.7833 155.003 22.4555C155.118 22.125 155.282 21.8386 155.499 21.5935C155.712 21.3483 155.972 21.1528 156.276 21.0096C156.58 20.8663 156.923 20.7947 157.306 20.7947C157.69 20.7947 158.032 20.8663 158.336 21.0096C158.64 21.1528 158.897 21.3456 159.114 21.5935C159.327 21.8386 159.492 22.1278 159.604 22.4555C159.716 22.7861 159.774 23.1358 159.774 23.5077C159.774 23.8795 159.716 24.232 159.604 24.5598C159.492 24.8903 159.327 25.1767 159.114 25.4219C158.9 25.667 158.64 25.8626 158.336 26.0058C158.032 26.149 157.69 26.2206 157.306 26.2206ZM157.306 25.5431C157.577 25.5431 157.815 25.4907 158.018 25.3833C158.224 25.2759 158.393 25.1327 158.533 24.9481C158.673 24.7664 158.777 24.5515 158.845 24.3036C158.914 24.0585 158.949 23.7914 158.949 23.5049C158.949 23.2185 158.914 22.9513 158.845 22.7062C158.777 22.4611 158.673 22.2435 158.533 22.0562C158.393 21.8689 158.224 21.7229 158.018 21.6183C157.813 21.5108 157.575 21.4585 157.306 21.4585C157.038 21.4585 156.797 21.5108 156.589 21.6183C156.38 21.7257 156.208 21.8716 156.068 22.0562C155.929 22.2435 155.825 22.4583 155.756 22.7062C155.688 22.9513 155.652 23.2185 155.652 23.5049C155.652 23.7914 155.688 24.0585 155.756 24.3036C155.825 24.5488 155.929 24.7636 156.068 24.9481C156.208 25.1299 156.38 25.2759 156.589 25.3833C156.797 25.4907 157.035 25.5431 157.306 25.5431Z" fill="#003057"/>
<path d="M161.365 21.61H161.384C161.567 21.3649 161.792 21.1666 162.052 21.0178C162.312 20.8691 162.633 20.7947 163.008 20.7947C163.542 20.7947 163.964 20.9352 164.27 21.2189C164.577 21.5026 164.731 21.913 164.731 22.4528V26.0801H163.928V22.5189C163.928 22.1801 163.827 21.9185 163.621 21.7394C163.416 21.5604 163.134 21.4695 162.77 21.4695C162.564 21.4695 162.378 21.5053 162.206 21.5742C162.033 21.643 161.885 21.7422 161.759 21.8634C161.633 21.9873 161.537 22.1361 161.466 22.3123C161.398 22.4886 161.362 22.6841 161.362 22.8962V26.0774H160.56V20.9297H161.362V21.6072L161.365 21.61ZM163.276 20.0979C163.159 20.0979 163.041 20.0814 162.929 20.0483C162.816 20.0153 162.709 19.9795 162.611 19.9382C162.504 19.8996 162.408 19.861 162.318 19.828C162.227 19.7949 162.151 19.7784 162.085 19.7784C162.011 19.7784 161.959 19.806 161.921 19.8583C161.885 19.9106 161.863 19.985 161.858 20.0786H161.263C161.291 19.7922 161.365 19.5691 161.491 19.4066C161.617 19.2441 161.795 19.1615 162.025 19.1615C162.156 19.1615 162.274 19.178 162.375 19.211C162.477 19.2441 162.575 19.2799 162.668 19.3212C162.753 19.3625 162.838 19.3983 162.92 19.4314C163.002 19.4644 163.09 19.481 163.183 19.481C163.276 19.481 163.339 19.4507 163.378 19.3901C163.413 19.3295 163.438 19.2606 163.452 19.1807H164.027C164.013 19.4341 163.95 19.649 163.832 19.828C163.717 20.007 163.531 20.0979 163.274 20.0979" fill="#003057"/>
<path d="M169.803 26.0829C169.293 26.0829 169 25.8267 168.921 25.3172H168.91C168.83 25.4164 168.737 25.5155 168.633 25.6119C168.526 25.7083 168.406 25.7964 168.266 25.8763C168.126 25.9562 167.97 26.0333 167.795 26.1104C167.62 26.1876 167.423 26.2261 167.206 26.2261C166.963 26.2261 166.735 26.1986 166.524 26.1407C166.313 26.0829 166.13 25.9948 165.974 25.8736C165.818 25.7524 165.697 25.6009 165.607 25.4191C165.517 25.2373 165.473 25.0198 165.473 24.7719C165.473 24.4606 165.528 24.2072 165.64 24.0117C165.752 23.8161 165.908 23.6564 166.105 23.5352C166.303 23.414 166.541 23.3204 166.815 23.257C167.089 23.1937 167.384 23.1331 167.702 23.0808C167.88 23.0532 168.044 23.0257 168.198 22.9954C168.348 22.9651 168.48 22.9238 168.589 22.8742C168.699 22.8246 168.784 22.7558 168.841 22.6704C168.901 22.585 168.932 22.4721 168.932 22.3316C168.932 22.0341 168.833 21.8083 168.636 21.6486C168.439 21.4888 168.154 21.4117 167.784 21.4117C167.368 21.4117 167.056 21.5026 166.842 21.6844C166.631 21.8661 166.519 22.1553 166.505 22.5464H165.733C165.738 22.3013 165.785 22.07 165.873 21.8551C165.957 21.6403 166.086 21.4558 166.253 21.3015C166.42 21.15 166.634 21.0288 166.886 20.938C167.141 20.8498 167.436 20.803 167.773 20.803C168.044 20.803 168.294 20.8305 168.526 20.8884C168.756 20.9435 168.956 21.0371 169.126 21.161C169.293 21.2877 169.427 21.453 169.523 21.6623C169.619 21.8716 169.666 22.1278 169.666 22.4335V24.8793C169.666 25.0914 169.701 25.2484 169.775 25.3475C169.822 25.4219 169.901 25.4577 170.013 25.4577C170.074 25.4577 170.139 25.4467 170.211 25.4274H170.241V26.014C170.189 26.0333 170.128 26.0526 170.063 26.0691C169.997 26.0856 169.912 26.0939 169.805 26.0939M167.384 25.6037C167.647 25.6037 167.88 25.5596 168.077 25.4687C168.274 25.3778 168.436 25.2676 168.562 25.1354C168.688 25.0032 168.781 24.8545 168.844 24.692C168.907 24.5295 168.937 24.3725 168.937 24.2183V23.3424C168.806 23.4278 168.63 23.5022 168.417 23.5655C168.203 23.6289 167.987 23.6812 167.768 23.7197C167.571 23.7583 167.382 23.7996 167.204 23.8382C167.026 23.8767 166.872 23.9373 166.743 24.0117C166.615 24.0888 166.513 24.1852 166.437 24.3064C166.36 24.4248 166.322 24.5791 166.322 24.7636C166.322 24.9371 166.352 25.0776 166.415 25.1878C166.478 25.2979 166.557 25.3833 166.659 25.4412C166.757 25.5017 166.869 25.5431 166.995 25.5651C167.121 25.5871 167.25 25.6009 167.382 25.6009" fill="#003057"/>
<path d="M171.643 21.789C171.794 21.5356 172.002 21.3208 172.262 21.1418C172.522 20.9627 172.823 20.8719 173.168 20.8719C173.24 20.8719 173.3 20.8774 173.346 20.8856C173.393 20.8966 173.442 20.9104 173.494 20.9297V21.7064H173.464C173.404 21.6871 173.349 21.6733 173.3 21.6678C173.25 21.6623 173.185 21.6568 173.105 21.6568C172.908 21.6568 172.719 21.6926 172.541 21.767C172.363 21.8413 172.204 21.9433 172.065 22.0755C171.925 22.2077 171.818 22.3729 171.739 22.5685C171.659 22.764 171.621 22.9816 171.621 23.2212V26.0801H170.819V20.9324H171.621V21.789H171.643Z" fill="#003057"/>
<path d="M174.466 25.0969H173.505V26.0829H174.466V25.0969Z" fill="#003057"/>
</svg>
