<svg width="120" height="38" viewBox="0 0 120 38" fill="none" xmlns="http://www.w3.org/2000/svg">
<path d="M1.39179 19.8424V5.48452C1.39179 3.22408 1.12966 2.26044 0.0822852 0.564812V0.497942H5.38263V0.564812C4.30234 2.29268 4.07429 3.19065 4.07429 5.48333V19.8412C4.07429 22.1351 4.30351 23.0319 5.38263 24.7598V24.8266H0.0822852V24.7598C1.16257 23.0319 1.39179 22.1339 1.39179 19.8412V19.8424Z" fill="#012639"/>
<path d="M11.9596 19.3111C11.9596 21.8366 12.418 22.8014 14.2494 24.7622V24.829H9.40637V24.7622C10.8464 22.8349 11.2061 21.8044 11.2061 19.3111V4.18773C10.7159 2.4921 10.0282 1.52845 8.62113 0.564812V0.497942H12.5802L27.8277 20.6389L27.7301 6.01471C27.7301 3.52261 27.3046 2.4921 25.7341 0.563617V0.496748H30.2492V0.563617C28.8092 2.4909 28.4495 3.52142 28.4495 6.01471V24.8266L27.7618 24.9257L11.8279 3.85576L11.9584 19.3111H11.9596Z" fill="#012639"/>
<path d="M35.5178 5.48452C35.5178 3.25752 35.2228 2.22701 34.2083 0.566006V0.499136C38.3966 0.499136 38.9197 0.36659 43.2714 0.36659C50.8299 0.36659 55.3779 4.68686 55.3779 12.5644C55.3779 20.4419 50.9286 24.829 42.9446 24.829H34.2083V24.7622C35.2557 23.1 35.5178 22.1029 35.5178 19.8436V5.48452ZM38.2003 24.2296L42.6508 24.1627C49.6203 24.0624 52.3028 20.2735 52.3028 13.0289C52.3028 4.78597 49.2277 1.06395 42.9775 1.03051L38.2003 0.997078V24.2296Z" fill="#012639"/>
<path d="M60.7441 19.8424V5.48452C60.7441 3.22408 60.482 2.26044 59.4346 0.566006V0.499136H64.7349V0.566006C63.6546 2.29388 63.4266 3.19184 63.4266 5.48452V19.8424C63.4266 22.1363 63.6558 23.0331 64.7349 24.761V24.8278H59.4346V24.761C60.5149 23.0331 60.7441 22.1351 60.7441 19.8424Z" fill="#012639"/>
<path d="M81.3577 25.3258C73.6029 25.3258 68.7281 19.7421 68.7281 12.6623C68.7281 5.58244 73.7346 0 81.9466 0C85.7094 0 88.5882 0.997077 90.3233 1.59532L90.978 6.64758L90.717 6.74669C88.3613 2.4921 85.8093 0.663922 81.6539 0.663922C74.9465 0.663922 71.8056 5.94903 71.8056 12.6957C71.8056 19.4424 74.521 24.6607 81.3589 24.6607C85.6448 24.6607 88.6552 22.8659 88.6552 19.3755C88.6552 16.4512 88.2955 15.2869 87.1506 13.8588V13.7919H92.4838V13.8588C91.4035 15.3872 91.1755 16.4512 91.1755 19.077V21.802C89.5721 22.8993 86.6933 25.3246 81.3601 25.3246L81.3577 25.3258Z" fill="#012639"/>
<path d="M95.7223 12.6969C95.7223 5.58483 101.382 0 107.829 0C114.275 0 120 5.58363 120 12.6969C120 19.8102 114.373 25.327 107.829 25.327C101.285 25.327 95.7223 19.7768 95.7223 12.6969ZM116.924 12.6969C116.924 5.84992 113.717 0.665116 107.828 0.665116C101.938 0.665116 98.7975 5.84992 98.7975 12.6969C98.7975 19.5439 101.971 24.6618 107.828 24.6618C113.684 24.6618 116.924 19.6096 116.924 12.6969Z" fill="#012639"/>
<path d="M6.08205 29.1469L6.10086 29.1696C6.66275 29.8586 6.79088 30.2109 6.79088 31.0539L6.82379 36.0023L1.52933 29.0084H0V29.16L0.0364406 29.1851C0.518397 29.5147 0.749971 29.8383 0.919243 30.415V35.7778C0.919243 36.6339 0.802868 36.9862 0.296227 37.6645L0.27977 37.6871V37.8221H2.16528V37.6812L2.14294 37.6573C1.49171 36.9611 1.35183 36.6268 1.35183 35.7778L1.30716 30.5345L6.84965 37.8639L7.21171 37.8113V31.0527C7.21171 30.1965 7.32808 29.8443 7.83472 29.166L7.85118 29.1433V29.0084H6.08205V29.1469Z" fill="#012639"/>
<path d="M13.2914 28.8317C10.9145 28.8317 8.90678 30.9369 8.90678 33.4278C8.90678 35.9187 10.9145 38 13.2914 38C15.6683 38 17.6995 35.9485 17.6995 33.4278C17.6995 30.907 15.7223 28.8317 13.2914 28.8317ZM16.4418 33.4278C16.4418 35.9987 15.2345 37.5964 13.2914 37.5964C11.3483 37.5964 10.1646 35.9605 10.1646 33.4278C10.1646 30.8951 11.3918 29.2353 13.2914 29.2353C15.191 29.2353 16.4418 30.8807 16.4418 33.4278Z" fill="#012639"/>
<path d="M24.5033 36.1647L23.1292 33.5114C24.1578 33.14 24.7455 32.279 24.7455 31.1363C24.7455 30.1655 24.273 29.0096 22.023 29.0096H18.9644V29.1409L18.9773 29.1612C19.337 29.7511 19.4299 30.101 19.4299 30.8652V35.9676C19.4299 36.7593 19.3417 37.0937 18.9773 37.6704L18.9644 37.6907V37.8221H21.0133V37.6907L21.0004 37.6704C20.6289 37.0746 20.5478 36.7725 20.5478 35.9664V33.6988H21.9737L24.079 37.8209H25.8164V37.6382L25.7705 37.6155C25.2239 37.3373 24.9783 37.1008 24.5045 36.1635L24.5033 36.1647ZM20.5478 29.4227C20.8487 29.4132 21.105 29.4132 21.3142 29.4132H21.8373C23.0516 29.4132 23.5923 29.9446 23.5923 31.1363C23.5923 32.1214 23.2902 33.2964 21.8491 33.2964H20.5478V29.4215V29.4227Z" fill="#012639"/>
<path d="M30.0353 28.9618C29.2536 28.9618 28.8139 28.9738 28.3884 28.9857C27.9758 28.9976 27.5503 29.0084 26.8144 29.0084H26.7321V29.1397L26.745 29.16C27.1047 29.7499 27.1976 30.0998 27.1976 30.864V35.9664C27.1976 36.7581 27.1094 37.0925 26.745 37.6692L26.7321 37.6895V37.8209H29.9189C32.8212 37.8209 34.4199 36.2435 34.4199 33.3788C34.4199 30.5142 32.8212 28.9606 30.0353 28.9606V28.9618ZM28.3155 37.4424V29.3547L29.9306 29.3654C32.1359 29.3774 33.1633 30.7052 33.1633 33.546C33.1633 36.1921 32.13 37.3862 29.8143 37.4197L28.3167 37.4424H28.3155Z" fill="#012639"/>
<path d="M41.8397 35.5413C41.1543 36.5301 40.5231 37.3504 39.7296 37.3838L37.2799 37.4638V33.5938H38.6623C38.9491 33.5938 39.2206 33.9627 39.4604 34.2875C39.5498 34.4093 39.6344 34.5228 39.7167 34.6171L39.7414 34.6446H39.953V32.0677H39.7367L39.712 32.0999C39.645 32.1871 39.5756 32.2886 39.5039 32.3937C39.2477 32.7674 38.9573 33.1901 38.6611 33.1901H37.2787V29.3678L39.6321 29.4478C39.9306 29.4717 40.3573 30.0126 40.77 30.5357C40.9122 30.716 41.0591 30.901 41.2049 31.073L41.2425 31.1172L41.4576 31.0348L40.971 29.0084H35.6953V29.1362L35.7047 29.1541C36.0115 29.7547 36.1491 30.1261 36.1491 30.7458V36.0847C36.1491 36.6901 36.0115 37.065 35.7047 37.6764L35.6953 37.6943V37.8221H41.5517L42.0959 35.5724L41.8749 35.4876L41.8385 35.5401L41.8397 35.5413Z" fill="#012639"/>
<path d="M48.8938 35.5461C48.1404 36.8035 47.5068 37.3564 46.7744 37.3958L44.7549 37.4758V30.8652C44.7549 30.0592 44.8348 29.7571 45.2075 29.1612L45.2204 29.1409V29.0096H43.1715V29.1409L43.1844 29.1612C43.5441 29.7511 43.637 30.101 43.637 30.8652V35.9676C43.637 36.7593 43.5488 37.0937 43.1844 37.6704L43.1715 37.6907V37.8221H48.5976L49.1548 35.5724L48.9291 35.4864L48.8938 35.5461Z" fill="#012639"/>
<path d="M56.1655 31.4384L56.3853 31.3548L55.9034 29.0096H49.1995L48.7305 31.3548L48.9514 31.4396L49.1419 31.1327C49.5604 30.4568 50.1928 29.4359 50.536 29.4359L51.9984 29.3917V35.9676C51.9984 36.7725 51.9184 37.0758 51.5458 37.6716L51.5329 37.6919V37.8233H53.5818V37.6919L53.5688 37.6716C53.1974 37.0758 53.1163 36.7737 53.1163 35.9676V29.3917L54.5692 29.4359C54.8807 29.4359 55.3956 30.2431 55.8105 30.8915C55.921 31.0634 56.028 31.2318 56.1302 31.3835L56.1667 31.4384H56.1655Z" fill="#012639"/>
<path d="M63.4242 37.6525C63.0398 37.3194 62.8847 37.0471 62.5532 36.1157L59.9283 28.9033H59.5345L56.9449 35.9975L56.8955 36.1288C56.6193 36.8572 56.4935 37.1892 56.0339 37.6573L56.0092 37.6824V37.8245H57.5926V37.6871L57.5738 37.6645C57.3422 37.3767 57.0789 36.8728 57.4597 35.8327L57.917 34.5646H60.837L61.3988 36.1276C61.7491 37.0949 61.5293 37.5534 61.4541 37.6716L61.4412 37.6931V37.8257H63.4548V37.68L63.4254 37.6549L63.4242 37.6525ZM60.6959 34.1598H58.071L59.3946 30.507L60.6959 34.1598Z" fill="#012639"/>
</svg>
