<svg width="120" height="39" viewBox="0 0 120 39" fill="none" xmlns="http://www.w3.org/2000/svg">
<path d="M1.39179 20.7121V6.35415C1.39179 4.09371 1.12966 3.13007 0.0822852 1.43444V1.36757H5.38263V1.43444C4.30234 3.16231 4.07429 4.06028 4.07429 6.35296V20.7109C4.07429 23.0048 4.30351 23.9015 5.38263 25.6294V25.6963H0.0822852V25.6294C1.16257 23.9015 1.39179 23.0036 1.39179 20.7109V20.7121Z" fill="white"/>
<path d="M11.9596 20.1807C11.9596 22.7062 12.418 23.6711 14.2494 25.6318V25.6987H9.40637V25.6318C10.8464 23.7045 11.2061 22.674 11.2061 20.1807V5.05735C10.7159 3.36173 10.0282 2.39808 8.62113 1.43444V1.36757H12.5802L27.8277 21.5085L27.7301 6.88434C27.7301 4.39224 27.3046 3.36173 25.7341 1.43325V1.36638H30.2492V1.43325C28.8092 3.36053 28.4495 4.39104 28.4495 6.88434V25.6963L27.7618 25.7954L11.8279 4.72539L11.9584 20.1807H11.9596Z" fill="white"/>
<path d="M35.5178 6.35415C35.5178 4.12715 35.2228 3.09663 34.2083 1.43563V1.36876C38.3966 1.36876 38.9197 1.23622 43.2714 1.23622C50.8299 1.23622 55.3779 5.55649 55.3779 13.434C55.3779 21.3115 50.9286 25.6987 42.9446 25.6987H34.2083V25.6318C35.2557 23.9696 35.5178 22.9725 35.5178 20.7133V6.35415ZM38.2003 25.0992L42.6508 25.0323C49.6203 24.932 52.3028 21.1431 52.3028 13.8985C52.3028 5.6556 49.2277 1.93358 42.9775 1.90014L38.2003 1.86671V25.0992Z" fill="white"/>
<path d="M60.7441 20.7121V6.35415C60.7441 4.09371 60.482 3.13007 59.4346 1.43563V1.36876H64.7349V1.43563C63.6546 3.1635 63.4266 4.06147 63.4266 6.35415V20.7121C63.4266 23.0059 63.6558 23.9027 64.7349 25.6306V25.6975H59.4346V25.6306C60.5149 23.9027 60.7441 23.0048 60.7441 20.7121Z" fill="white"/>
<path d="M81.3577 26.1954C73.6029 26.1954 68.7281 20.6118 68.7281 13.5319C68.7281 6.45207 73.7346 0.869629 81.9466 0.869629C85.7094 0.869629 88.5882 1.86671 90.3233 2.46495L90.978 7.51721L90.717 7.61632C88.3613 3.36173 85.8093 1.53355 81.6539 1.53355C74.9465 1.53355 71.8056 6.81866 71.8056 13.5654C71.8056 20.312 74.521 25.5303 81.3589 25.5303C85.6448 25.5303 88.6552 23.7355 88.6552 20.2452C88.6552 17.3208 88.2955 16.1566 87.1506 14.7284V14.6615H92.4838V14.7284C91.4035 16.2569 91.1755 17.3208 91.1755 19.9466V22.6716C89.5721 23.769 86.6933 26.1942 81.3601 26.1942L81.3577 26.1954Z" fill="white"/>
<path d="M95.7223 13.5665C95.7223 6.45446 101.382 0.869629 107.829 0.869629C114.275 0.869629 120 6.45326 120 13.5665C120 20.6798 114.373 26.1966 107.829 26.1966C101.285 26.1966 95.7223 20.6464 95.7223 13.5665ZM116.924 13.5665C116.924 6.71955 113.717 1.53475 107.828 1.53475C101.938 1.53475 98.7975 6.71955 98.7975 13.5665C98.7975 20.4135 101.971 25.5315 107.828 25.5315C113.684 25.5315 116.924 20.4792 116.924 13.5665Z" fill="white"/>
<path d="M6.08205 30.0165L6.10086 30.0392C6.66275 30.7282 6.79088 31.0805 6.79088 31.9235L6.82379 36.8719L1.52933 29.878H0V30.0297L0.0364406 30.0547C0.518397 30.3843 0.749971 30.7079 0.919243 31.2847V36.6474C0.919243 37.5036 0.802868 37.8558 0.296227 38.5341L0.27977 38.5568V38.6917H2.16528V38.5508L2.14294 38.5269C1.49171 37.8308 1.35183 37.4964 1.35183 36.6474L1.30716 31.4041L6.84965 38.7335L7.21171 38.681V31.9223C7.21171 31.0662 7.32808 30.7139 7.83472 30.0356L7.85118 30.013V29.878H6.08205V30.0165Z" fill="white"/>
<path d="M13.2914 29.7013C10.9145 29.7013 8.90678 31.8065 8.90678 34.2974C8.90678 36.7883 10.9145 38.8696 13.2914 38.8696C15.6683 38.8696 17.6995 36.8182 17.6995 34.2974C17.6995 31.7766 15.7223 29.7013 13.2914 29.7013ZM16.4418 34.2974C16.4418 36.8683 15.2345 38.466 13.2914 38.466C11.3483 38.466 10.1646 36.8301 10.1646 34.2974C10.1646 31.7647 11.3918 30.1049 13.2914 30.1049C15.191 30.1049 16.4418 31.7504 16.4418 34.2974Z" fill="white"/>
<path d="M24.5033 37.0343L23.1292 34.381C24.1578 34.0096 24.7455 33.1487 24.7455 32.0059C24.7455 31.0351 24.273 29.8792 22.023 29.8792H18.9644V30.0106L18.9773 30.0309C19.337 30.6208 19.4299 30.9706 19.4299 31.7349V36.8373C19.4299 37.629 19.3417 37.9633 18.9773 38.5401L18.9644 38.5604V38.6917H21.0133V38.5604L21.0004 38.5401C20.6289 37.9442 20.5478 37.6421 20.5478 36.8361V34.5685H21.9737L24.079 38.6905H25.8164V38.5078L25.7705 38.4851C25.2239 38.2069 24.9783 37.9705 24.5045 37.0331L24.5033 37.0343ZM20.5478 30.2924C20.8487 30.2828 21.105 30.2828 21.3142 30.2828H21.8373C23.0516 30.2828 23.5923 30.8142 23.5923 32.0059C23.5923 32.9911 23.2902 34.166 21.8491 34.166H20.5478V30.2912V30.2924Z" fill="white"/>
<path d="M30.0353 29.8314C29.2536 29.8314 28.8139 29.8434 28.3884 29.8553C27.9758 29.8673 27.5503 29.878 26.8144 29.878H26.7321V30.0094L26.745 30.0297C27.1047 30.6196 27.1976 30.9694 27.1976 31.7337V36.8361C27.1976 37.6278 27.1094 37.9621 26.745 38.5389L26.7321 38.5592V38.6905H29.9189C32.8212 38.6905 34.4199 37.1131 34.4199 34.2484C34.4199 31.3838 32.8212 29.8303 30.0353 29.8303V29.8314ZM28.3155 38.312V30.2243L29.9306 30.2351C32.1359 30.247 33.1633 31.5748 33.1633 34.4156C33.1633 37.0618 32.13 38.2559 29.8143 38.2893L28.3167 38.312H28.3155Z" fill="white"/>
<path d="M41.8397 36.411C41.1543 37.3997 40.5231 38.22 39.7296 38.2535L37.2799 38.3335V34.4634H38.6623C38.9491 34.4634 39.2206 34.8324 39.4604 35.1572C39.5498 35.279 39.6344 35.3924 39.7167 35.4867L39.7414 35.5142H39.953V32.9373H39.7367L39.712 32.9696C39.645 33.0567 39.5756 33.1582 39.5039 33.2633C39.2477 33.6371 38.9573 34.0598 38.6611 34.0598H37.2787V30.2374L39.6321 30.3174C39.9306 30.3413 40.3573 30.8823 40.77 31.4053C40.9122 31.5856 41.0591 31.7707 41.2049 31.9426L41.2425 31.9868L41.4576 31.9044L40.971 29.878H35.6953V30.0058L35.7047 30.0237C36.0115 30.6243 36.1491 30.9957 36.1491 31.6154V36.9543C36.1491 37.5597 36.0115 37.9346 35.7047 38.546L35.6953 38.5639V38.6917H41.5517L42.0959 36.442L41.8749 36.3572L41.8385 36.4098L41.8397 36.411Z" fill="white"/>
<path d="M48.8938 36.4157C48.1404 37.6731 47.5068 38.226 46.7744 38.2654L44.7549 38.3454V31.7349C44.7549 30.9288 44.8348 30.6267 45.2075 30.0309L45.2204 30.0106V29.8792H43.1715V30.0106L43.1844 30.0309C43.5441 30.6208 43.637 30.9706 43.637 31.7349V36.8373C43.637 37.629 43.5488 37.9633 43.1844 38.5401L43.1715 38.5604V38.6917H48.5976L49.1548 36.442L48.9291 36.356L48.8938 36.4157Z" fill="white"/>
<path d="M56.1655 32.308L56.3853 32.2244L55.9034 29.8792H49.1995L48.7305 32.2244L48.9514 32.3092L49.1419 32.0023C49.5604 31.3265 50.1928 30.3055 50.536 30.3055L51.9984 30.2613V36.8373C51.9984 37.6421 51.9184 37.9454 51.5458 38.5412L51.5329 38.5615V38.6929H53.5818V38.5615L53.5688 38.5412C53.1974 37.9454 53.1163 37.6433 53.1163 36.8373V30.2613L54.5692 30.3055C54.8807 30.3055 55.3956 31.1127 55.8105 31.7611C55.921 31.9331 56.028 32.1014 56.1302 32.2531L56.1667 32.308H56.1655Z" fill="white"/>
<path d="M63.4242 38.5221C63.0398 38.189 62.8847 37.9167 62.5532 36.9853L59.9283 29.7729H59.5345L56.9449 36.8671L56.8955 36.9985C56.6193 37.7269 56.4935 38.0588 56.0339 38.5269L56.0092 38.552V38.6941H57.5926V38.5568L57.5738 38.5341C57.3422 38.2463 57.0789 37.7424 57.4597 36.7023L57.917 35.4342H60.837L61.3988 36.9973C61.7491 37.9645 61.5293 38.423 61.4541 38.5412L61.4412 38.5627V38.6953H63.4548V38.5496L63.4254 38.5245L63.4242 38.5221ZM60.6959 35.0294H58.071L59.3946 31.3766L60.6959 35.0294Z" fill="white"/>
</svg>
