<svg width="95" height="38" viewBox="0 0 95 38" fill="none" xmlns="http://www.w3.org/2000/svg">
<path d="M18.4114 0.869629H17.0556V26.1174H18.4114V0.869629Z" fill="white"/>
<path d="M44.6686 0.869629H43.3349V26.1174H44.6686V0.869629Z" fill="white"/>
<path d="M60.7132 0.869629H59.3795V26.1174H60.7132V0.869629Z" fill="white"/>
<path d="M76.6141 0.869629H75.2805V26.1174H76.6141V0.869629Z" fill="white"/>
<path d="M91.9698 0.869629H90.6325V26.1174H91.9698V0.869629Z" fill="white"/>
<path d="M39.6323 19.5227C39.3486 19.6442 39.0649 19.7437 38.7628 19.8248C38.4791 19.9058 38.177 19.9648 37.8712 20.0053C37.466 20.0642 37.0607 20.0863 36.6554 20.0863L35.9297 20.0274L35.2812 19.9058L34.6734 19.7437L34.106 19.5227L33.6013 19.239L33.1371 18.9148L32.7318 18.55L32.3671 18.1264L32.0649 17.6622L31.8034 17.1758L31.5786 16.6306L31.4165 16.0816L31.2765 15.4774L31.1734 14.8695L31.1107 14.2211L31.0923 13.5138L31.1329 12.9059L31.2139 12.298L31.295 11.7122L31.435 11.1448L31.5971 10.5775L31.7997 10.0285L32.0428 9.52378L32.3265 9.03747L32.6507 8.59168L33.0339 8.18642L33.4797 7.82169L33.9881 7.49748L34.5334 7.25432L35.1412 7.0738L35.8081 6.95222L36.5376 6.88959C36.8212 6.9117 37.1049 6.93012 37.407 6.95222C37.6281 6.99275 37.8712 7.03327 38.1144 7.09222C38.317 7.15117 38.5196 7.23222 38.7223 7.31327C38.9839 7.43485 39.2491 7.57485 39.4923 7.73695C39.8165 7.93958 40.1186 8.16063 40.4428 8.38537L39.3302 10.0654L38.6412 9.61957C38.3575 9.43536 38.0739 9.25484 37.7718 9.13326C37.6281 9.07431 37.5065 9.0301 37.3481 8.99326C37.0865 8.95273 36.8397 8.93431 36.5781 8.93431L36.0918 8.99326L35.6681 9.09273L35.3033 9.23273L35.0012 9.41326L34.7397 9.61589L34.5186 9.84062L34.316 10.1022L34.1539 10.4043L34.0139 10.7285L33.8923 11.0711L33.8113 11.4543L33.7302 11.8596L33.6492 12.729L33.6086 13.639V14.1438L33.6307 14.608L33.6713 15.0316L33.7302 15.4553L33.8297 15.8201L33.9328 16.1627L34.0765 16.4869L34.257 16.7706L34.4412 17.0137L34.6807 17.2569L34.9239 17.4374L35.226 17.6179L35.5686 17.7579L35.9518 17.8795L36.3976 17.979L36.8618 18.0416C37.0828 18.0232 37.2854 18.0011 37.4881 17.9606C37.7091 17.92 37.9118 17.8611 38.1365 17.7985L38.2949 17.7174V14.8843H36.0107L35.3844 12.659H40.5644V19.029C40.2586 19.1911 39.9565 19.3532 39.6323 19.4932" fill="white"/>
<path d="M25.0282 20.09C24.6855 20.0679 24.3392 20.0311 23.9966 19.9685C23.654 19.9095 23.3297 19.8248 23.0055 19.7474C22.6813 19.6258 22.3571 19.5264 22.0329 19.3827C21.6498 19.2021 21.2629 18.9774 20.8798 18.7748L22.0513 16.8332C22.3534 17.0543 22.6592 17.2569 22.9834 17.4411C23.2266 17.5811 23.4476 17.6843 23.6908 17.7653C23.9118 17.8648 24.155 17.9274 24.3982 17.9864C24.7408 18.049 25.0466 18.0895 25.3892 18.13L25.8755 18.0674C26.0966 18.049 26.2992 17.9864 26.5018 17.9237L26.8445 17.7616L27.1097 17.559L27.3308 17.3158L27.4302 17.1537L27.5113 16.9695L27.5702 16.7669L27.6734 16.3027V16.019L27.6108 15.7758L27.4892 15.5511L27.3271 15.3485L27.106 15.1459L26.8224 14.9432L26.5202 14.7627L26.1776 14.6006L25.4297 14.2985C24.8034 14.0959 24.1771 13.8932 23.5692 13.6722L22.9208 13.3701L22.6371 13.1895L22.3534 12.9685L22.1324 12.7253L21.9298 12.4601L21.7676 12.1985L21.6461 11.9148L21.484 11.3106L21.4655 11.0085L21.4434 10.7027L21.4655 10.3785L21.5466 9.7522L21.6866 9.10747L21.8266 8.76484L21.9887 8.48116L22.1913 8.19748L22.394 7.95432L22.8803 7.54906L23.1418 7.38696L23.4255 7.24696L23.7092 7.12538L24.295 6.92275L24.9029 6.80117L25.4887 6.74222L25.8129 6.72012C26.0745 6.74222 26.3397 6.77906 26.6234 6.81959C26.8666 6.86012 27.0876 6.92275 27.3308 6.9817C27.6329 7.08117 27.9387 7.18433 28.2187 7.3059C28.8266 7.56748 29.4123 7.85116 29.9981 8.13485L28.9076 10.0138C28.3402 9.68957 27.795 9.32484 27.1871 9.06326C26.9845 8.98221 26.7818 8.92326 26.5608 8.88274C26.3803 8.84221 26.2181 8.82379 26.056 8.82379L25.3708 8.84221L24.9655 8.92326L24.6634 9.02273L24.4203 9.16273L24.2582 9.34326L24.1182 9.58642L23.9966 9.92904L23.9376 10.3527L23.9561 10.5554L23.9966 10.7396L24.0776 10.9201L24.1808 11.0638L24.3208 11.2075L24.4829 11.3475L24.6634 11.469L25.1092 11.6717L25.6176 11.8522C26.0634 11.9738 26.5276 12.0953 26.9734 12.239L27.5813 12.4601L28.1708 12.7659L28.4544 12.9464L28.716 13.149L28.9813 13.3517L29.4676 13.838L29.6702 14.1216L29.9944 14.7259L30.0939 15.0685L30.175 15.4111L30.1934 15.7758L30.175 16.159L30.0939 16.6637L29.9723 17.1279L29.8323 17.5516L29.6297 17.9569L29.4087 18.3216L29.1655 18.6458L28.8597 18.9479L28.5576 19.2095L28.215 19.4306L27.8502 19.6111L27.4671 19.7732L27.0618 19.8948L26.6566 19.9758L26.2329 20.0385L25.7871 20.079H25.0392L25.0282 20.09Z" fill="white"/>
<path d="M67.6137 20.09C67.271 20.0679 66.9284 20.0311 66.5821 19.9685C66.2395 19.9095 65.9153 19.8248 65.591 19.7474C65.2705 19.6258 64.9463 19.5264 64.6221 19.3827C64.239 19.2021 63.8521 18.9774 63.469 18.7748L64.6405 16.8332C64.9647 17.0543 65.2668 17.2569 65.591 17.4411C65.8158 17.5811 66.0368 17.6843 66.28 17.7653C66.5232 17.8648 66.7479 17.9274 67.0095 17.9864C67.3337 18.049 67.6358 18.0895 67.9784 18.13L68.4647 18.0674C68.6858 18.049 68.8884 17.9864 69.1131 17.9237L69.4373 17.7616L69.7026 17.559L69.9273 17.3158L70.0268 17.1537L70.1079 16.9695L70.1889 16.7669L70.2884 16.3027L70.27 16.019L70.2073 15.7758L70.0858 15.5511L69.9273 15.3485L69.7026 15.1459L69.4373 14.9432L69.1131 14.7627L68.7668 14.6006L68.0189 14.2985C67.3926 14.0959 66.7626 13.8932 66.1584 13.6722L65.5321 13.3701L65.2263 13.1895L64.9647 12.9685L64.7216 12.7253L64.5411 12.4601L64.379 12.1985L64.2353 11.9148L64.1542 11.6127L64.0916 11.3106L64.0511 11.0085L64.0326 10.7027L64.0511 10.3785L64.1321 9.7522L64.2758 9.10747L64.4158 8.76484L64.5779 8.48116L64.7805 8.19748L64.9832 7.95432L65.4695 7.54906L65.7532 7.38696L66.0147 7.24696L66.2984 7.12538L66.8842 6.92275L67.4884 6.80117L68.0779 6.74222L68.4021 6.72012C68.6637 6.74222 68.9289 6.77906 69.2126 6.81959C69.4558 6.86012 69.6989 6.92275 69.9421 6.9817C70.2442 7.08117 70.5279 7.18433 70.83 7.3059C71.4158 7.56748 72.0236 7.85116 72.6094 8.13485L71.4968 10.0138C70.9331 9.68957 70.3842 9.32484 69.7984 9.06326C69.5773 8.98221 69.3747 8.92326 69.15 8.88274C68.9879 8.84221 68.8258 8.82379 68.6452 8.82379L67.9563 8.84221L67.551 8.92326L67.2489 9.02273L67.0242 9.16273L66.8437 9.34326L66.7 9.58642L66.6005 9.92904L66.5195 10.3527L66.5379 10.5554L66.5968 10.7396L66.6558 10.9201L66.8989 11.2075L67.061 11.3475L67.2416 11.469L67.6874 11.6717L68.1921 11.8522C68.6379 11.9738 69.1021 12.0953 69.5479 12.239L70.1558 12.4601L70.7415 12.7659L71.0252 12.9464L71.3089 13.149L71.5742 13.3517L71.8173 13.5948L72.0384 13.838L72.241 14.1216L72.4252 14.4238L72.5652 14.7259L72.6684 15.0685L72.7494 15.4111L72.7715 15.7758V16.159L72.6684 16.6637L72.5652 17.1279L72.4031 17.5516L72.2226 17.9569L71.9794 18.3216L71.7363 18.6458L71.4526 18.9479L71.1284 19.2095L70.7858 19.4306L70.421 19.6111L70.0563 19.7732L69.651 19.8948L69.2273 19.9758L68.8037 20.0385L68.3579 20.079H67.61L67.6137 20.09Z" fill="white"/>
<path d="M51.5911 20.09C51.2264 20.0679 50.8838 20.0311 50.5375 19.9685C50.2133 19.9095 49.889 19.8248 49.5464 19.7474C49.2222 19.6258 48.898 19.5264 48.5959 19.3827C48.1906 19.2021 47.8075 18.9774 47.4243 18.7748L48.5959 16.8332C48.9201 17.0543 49.2222 17.2569 49.5464 17.4411C49.7675 17.5811 49.9885 17.6843 50.2317 17.7653C50.4748 17.8648 50.718 17.9274 50.9611 17.9864C51.2854 18.049 51.6096 18.0895 51.9338 18.13L52.4201 18.0674C52.6448 18.049 52.8438 17.9864 53.0685 17.9237L53.3927 17.7616L53.6764 17.559L53.879 17.3158L53.9822 17.1537L54.0632 16.9695L54.1406 16.7669L54.2401 16.3027L54.2216 16.019L54.159 15.7758L54.0374 15.5511L53.8753 15.3485L53.6543 15.1459L53.3927 14.9432L53.0685 14.7627L52.7222 14.6006L51.9743 14.2985C51.348 14.0959 50.718 13.8932 50.1138 13.6722L49.4838 13.3701L49.1817 13.1895L48.9201 12.9685L48.6769 12.7253L48.4964 12.4601L48.3343 12.1985L48.2127 11.9148L48.1096 11.6127L48.0506 11.3106L48.0101 11.0085L47.9917 10.7027L48.0101 10.3785L48.0912 9.7522L48.2348 9.10747L48.3748 8.76484L48.537 8.48116L48.7396 8.19748L48.9422 7.95432L49.1854 7.75169L49.4469 7.54906L49.7085 7.38696L49.9738 7.24696L50.2575 7.12538L50.8654 6.92275L51.4511 6.80117L52.059 6.74222L52.3611 6.72012C52.6227 6.74222 52.9064 6.77906 53.1717 6.81959C53.4111 6.86012 53.658 6.92275 53.8974 6.9817C54.2032 7.08117 54.4832 7.18433 54.789 7.3059C55.3748 7.56748 55.9827 7.85116 56.5685 8.13485L55.4559 10.0138C54.9069 9.68957 54.3432 9.32484 53.7574 9.06326C53.5364 8.98221 53.3338 8.92326 53.109 8.88274C52.9506 8.84221 52.7848 8.82379 52.6043 8.82379L51.9154 8.84221L51.5101 8.92326L51.208 9.02273L50.9833 9.16273L50.799 9.34326L50.659 9.58642L50.5559 9.92904L50.4748 10.3527L50.4969 10.5554L50.5559 10.7396L50.6369 10.9201L50.7401 11.0638L50.8617 11.2075L51.0238 11.3475L51.2043 11.469L51.6501 11.6717L52.1548 11.8522C52.6006 11.9738 53.0648 12.0953 53.5106 12.239L54.1185 12.4601L54.7043 12.7659L54.988 12.9464L55.2716 13.149L55.5369 13.3517L55.7801 13.5948L56.0011 13.838L56.2037 14.1216L56.388 14.4238L56.528 14.7259L56.6495 15.0685L56.7085 15.4111L56.749 15.7758L56.7306 16.159L56.6495 16.6637L56.528 17.1279L56.3659 17.5516L56.1816 17.9569L55.9606 18.3216L55.699 18.6458L55.4153 18.9479L55.0911 19.2095L54.7485 19.4306L54.3838 19.6111L54.019 19.7732L53.6138 19.8948L53.1901 19.9758L52.7627 20.0385L52.3206 20.079H51.5911V20.09Z" fill="white"/>
<path d="M5.7488 6.95959L8.13247 15.2527L10.4425 6.95959H13.3345L14.4251 19.9058H12.0377L11.4519 11.5722L9.04615 19.9058H7.14511L4.77618 11.7748L4.14986 19.9058H1.80304L2.91566 6.95959H5.7488Z" fill="white"/>
<path d="M78.0436 33.8652L77.2331 36.2968H77.5278L77.7636 35.5489H78.6699L78.8983 36.2968H79.2262L78.4231 33.8652H78.0436ZM78.1026 34.4768L78.2241 34.1194L78.342 34.4952C78.4047 34.7052 78.5962 35.3094 78.5962 35.3094H77.8447C77.8447 35.3094 78.0878 34.5284 78.1026 34.4768ZM79.5504 34.9484V36.2968H79.8268V35.1915C79.8268 35.0478 79.8489 34.9926 79.9299 34.9115C80.011 34.8305 80.1178 34.7826 80.2246 34.7826C80.2578 34.7826 80.2689 34.7863 80.302 34.7973L80.4162 34.4952C80.4162 34.4952 80.3683 34.4768 80.3204 34.4768C80.1399 34.4768 79.952 34.591 79.8231 34.7715V34.7457C79.8231 34.6278 79.8046 34.5763 79.7641 34.4841L79.4878 34.5578C79.5357 34.672 79.5504 34.7457 79.5504 34.9484ZM81.7573 34.7273C81.6025 34.5578 81.4478 34.4805 81.2562 34.4805C81.0462 34.4805 80.8583 34.5836 80.7294 34.7641C80.6115 34.9226 80.5636 35.081 80.5636 35.4678C80.5636 35.8252 80.6741 36.0426 80.8473 36.1862C80.9652 36.2857 81.0867 36.3299 81.2525 36.3299C81.4552 36.3299 81.6136 36.2562 81.7499 36.0978V37.0152L82.0152 36.9599V35.0147C82.0152 34.7936 82.0483 34.5726 82.0704 34.5284H81.7978C81.7794 34.5689 81.7646 34.6278 81.7573 34.7273ZM81.7462 35.8178C81.6541 35.991 81.4994 36.0905 81.3188 36.0905C81.1825 36.0905 81.0978 36.0573 81.0241 35.9873C80.9357 35.9062 80.8583 35.7884 80.8583 35.4015C80.8583 35.1694 80.8804 35.0589 80.9394 34.941C81.0094 34.801 81.1457 34.7236 81.2967 34.7236C81.4662 34.7236 81.6504 34.8231 81.7462 34.9741V35.8178ZM82.6083 35.8436C82.6083 35.9468 82.6231 36.0389 82.6525 36.1052C82.7188 36.2636 82.892 36.3557 83.1167 36.3557C83.3562 36.3557 83.5404 36.2673 83.6767 36.0868C83.7025 36.2047 83.7504 36.2747 83.8683 36.3705L84.0451 36.1826C83.9972 36.142 83.9862 36.1236 83.9678 36.0831C83.9309 36.0168 83.9273 35.9541 83.9273 35.7552V34.5026L83.6546 34.5468V35.7994C83.5588 35.991 83.3783 36.1199 83.2052 36.1199C83.1278 36.1199 83.043 36.0905 82.9841 36.0536C82.903 36.002 82.8809 35.9357 82.8809 35.7626V34.4952L82.6083 34.5505V35.8473V35.8436ZM84.4983 36.2968H84.793V34.4915L84.4983 34.5394V36.2968ZM84.432 33.9905C84.432 34.1084 84.5278 34.2042 84.6494 34.2042C84.7709 34.2042 84.8667 34.1084 84.8667 33.9868C84.8667 33.8652 84.7709 33.7694 84.6494 33.7694C84.5278 33.7694 84.432 33.8689 84.432 33.9905ZM85.6957 34.5284C85.6957 34.2963 85.7325 34.0273 85.7325 34.0273L85.4451 34.0936V34.1378C85.423 34.3184 85.4157 34.4178 85.4157 34.5063V34.5284H85.1836V34.7457H85.4157V35.9541C85.4157 36.131 85.4599 36.2452 85.5851 36.3041C85.6515 36.3373 85.7251 36.3557 85.8172 36.3557C85.9425 36.3557 86.0383 36.3299 86.1267 36.2857L86.0862 36.1089C86.0346 36.1347 85.9867 36.1457 85.9093 36.1457C85.7362 36.1457 85.6846 36.0794 85.6846 35.8841V34.7494H86.0567L86.1414 34.532H85.6957V34.5284ZM87.243 36.1052C87.0662 36.1052 86.9041 36.0426 86.8046 35.8878C86.7457 35.7957 86.7235 35.6668 86.7235 35.501V35.4568H87.8251V35.4199C87.8178 34.9963 87.7772 34.8305 87.6225 34.6757C87.5046 34.5468 87.3351 34.4805 87.1435 34.4805C86.9299 34.4805 86.7567 34.5615 86.6167 34.7273C86.4657 34.9005 86.403 35.0957 86.403 35.3941C86.403 35.9799 86.6978 36.3336 87.1878 36.3336C87.4162 36.3336 87.6262 36.2562 87.7846 36.1126L87.6778 35.9357C87.5525 36.0499 87.4162 36.1015 87.2467 36.1015M87.1288 34.7015C87.2651 34.7015 87.3867 34.7641 87.4493 34.8563C87.5009 34.941 87.5267 35.0589 87.5304 35.2505H86.7235C86.7383 34.8857 86.8783 34.7015 87.1325 34.7015M88.9451 34.4841C88.7572 34.4841 88.6062 34.5505 88.4662 34.6905C88.3151 34.8378 88.2009 35.0552 88.2009 35.442C88.2009 35.7036 88.2525 35.8989 88.3704 36.0684C88.4956 36.2452 88.6835 36.3336 88.9341 36.3336C89.1551 36.3336 89.3099 36.2673 89.472 36.0978L89.3209 35.921C89.2178 36.0462 89.0851 36.1126 88.9414 36.1126C88.6578 36.1126 88.5067 35.8989 88.5067 35.501C88.5067 35.2431 88.5399 35.0478 88.6062 34.9226C88.6688 34.801 88.8014 34.7236 88.9378 34.7236C89.0667 34.7236 89.1367 34.7531 89.2767 34.8673L89.4277 34.6757C89.2988 34.5689 89.1698 34.4841 88.9451 34.4841ZM90.1277 34.5284C90.1277 34.2963 90.1646 34.0273 90.1646 34.0273L89.8772 34.0936V34.1378C89.8551 34.3184 89.8514 34.4178 89.8514 34.5063V34.5284H89.6193V34.7457H89.8514V35.9541C89.8514 36.131 89.8956 36.2452 90.0209 36.3041C90.0872 36.3373 90.1609 36.3557 90.253 36.3557C90.3746 36.3557 90.4741 36.3299 90.5625 36.2857L90.5219 36.1089C90.4704 36.1347 90.4225 36.1457 90.3451 36.1457C90.172 36.1457 90.1204 36.0794 90.1204 35.8841V34.7494H90.4925L90.5772 34.532H90.1314L90.1277 34.5284ZM90.8756 35.4162C90.8756 35.9983 91.1667 36.3557 91.6383 36.3557C91.8372 36.3557 91.9809 36.3078 92.1209 36.1862C92.3161 36.0168 92.3972 35.7994 92.3972 35.4568C92.3972 35.1694 92.3456 34.9594 92.2351 34.801C92.1135 34.6278 91.9219 34.4915 91.6272 34.4915C91.163 34.4915 90.8756 34.8415 90.8756 35.4162ZM91.9993 34.9447C92.0546 35.0626 92.0804 35.2284 92.0804 35.4752C92.0804 35.6484 92.0656 35.7478 92.0251 35.8584C91.9661 36.0278 91.8262 36.1236 91.6419 36.1236C91.4909 36.1236 91.3472 36.0536 91.2846 35.9468C91.2183 35.8362 91.174 35.6189 91.174 35.3684C91.174 35.1584 91.2035 35.0184 91.2588 34.9078C91.3214 34.7936 91.4651 34.7163 91.6198 34.7163C91.7635 34.7163 91.9219 34.7863 91.9956 34.9447M93.4067 34.462C93.0383 34.462 92.7804 34.6868 92.7804 35.0036C92.7804 35.1215 92.8209 35.2284 92.8946 35.3131C92.9756 35.4052 93.0677 35.4568 93.2261 35.4899L93.4472 35.5378C93.6498 35.582 93.7382 35.6705 93.7382 35.8289C93.7382 36.0168 93.5982 36.1347 93.3809 36.1347C93.1856 36.1347 93.0014 36.0794 92.8209 35.9689L92.714 36.1752C92.8946 36.2857 93.1414 36.352 93.3625 36.352C93.7603 36.352 94.0293 36.1162 94.0293 35.7736C94.0293 35.512 93.8782 35.3499 93.5577 35.2799L93.3256 35.232C93.2188 35.2099 93.1598 35.1805 93.1193 35.1326C93.0861 35.092 93.0714 35.0405 93.0714 34.9778C93.0714 34.8047 93.204 34.6868 93.403 34.6868C93.5577 34.6868 93.6903 34.7384 93.8451 34.8157L93.9482 34.6094C93.7972 34.5247 93.5946 34.4657 93.4104 34.4657" fill="white"/>
<path d="M52.3206 36.3484C52.0406 36.3484 51.7532 36.271 51.5064 36.1273L51.6648 35.8105C51.8859 35.9394 52.0848 36.0168 52.3354 36.0168C52.6411 36.0168 52.8217 35.8694 52.8217 35.6226C52.8217 35.4384 52.7074 35.3241 52.4532 35.2541L52.188 35.1768C51.9632 35.1105 51.8011 35.022 51.709 34.8784C51.6427 34.7789 51.6059 34.661 51.6059 34.5173C51.6059 34.0789 51.9485 33.7842 52.4496 33.7842C52.7332 33.7842 53.0169 33.8652 53.2343 34.0199L53.0464 34.311C52.818 34.1747 52.6596 34.1231 52.4643 34.1231C52.2211 34.1231 52.059 34.2557 52.059 34.4584C52.059 34.6131 52.1438 34.6905 52.3906 34.7641L52.6853 34.8489C53.0427 34.952 53.2932 35.1841 53.2932 35.5562C53.2932 35.9689 52.958 36.352 52.3243 36.352" fill="white"/>
<path d="M55.0506 35.4015C55.0506 35.9836 54.7374 36.3484 54.2474 36.3484C53.7574 36.3484 53.448 35.9799 53.448 35.3978C53.448 34.8157 53.7611 34.4436 54.2401 34.4436C54.7559 34.4436 55.0506 34.8268 55.0506 35.4015ZM53.8864 35.3757C53.8864 35.9026 54.019 36.0573 54.2548 36.0573C54.4906 36.0573 54.6159 35.8657 54.6159 35.4126C54.6159 34.9005 54.4722 34.7457 54.2438 34.7457C53.9932 34.7457 53.8864 34.9336 53.8864 35.3757Z" fill="white"/>
<path d="M55.7064 36.341C55.3085 36.341 55.3085 35.9836 55.3085 35.8289V34.2852C55.3085 34.0384 55.2974 33.9057 55.2716 33.7547L55.6769 33.6663C55.7064 33.7768 55.7101 33.9278 55.7101 34.1636V35.7036C55.7101 35.9468 55.7211 35.9873 55.7506 36.0278C55.7727 36.061 55.8316 36.0757 55.8795 36.0573L55.9459 36.3005C55.8722 36.3262 55.7985 36.3447 55.7101 36.3447" fill="white"/>
<path d="M56.6753 36.352C56.4506 36.352 56.2148 36.282 55.979 36.1494L56.119 35.8657C56.2811 35.9578 56.5022 36.0573 56.7085 36.0573C56.8816 36.0573 57.0032 35.9541 57.0032 35.8031C57.0032 35.6631 56.9148 35.5894 56.7085 35.5489L56.4911 35.5047C56.2185 35.4457 56.0564 35.2615 56.0564 35.0073C56.0564 34.6684 56.329 34.4289 56.7306 34.4289C56.9774 34.4289 57.1764 34.5026 57.3274 34.5873L57.1985 34.8599C57.029 34.7715 56.8964 34.7273 56.7527 34.7273C56.5832 34.7273 56.4764 34.8231 56.4764 34.9594C56.4764 35.0699 56.5353 35.1289 56.7195 35.1731L56.9443 35.2284C57.309 35.3205 57.4085 35.5231 57.4085 35.7368C57.4085 36.1015 57.1101 36.352 56.6753 36.352Z" fill="white"/>
<path d="M59.14 35.4015C59.14 35.9836 58.8269 36.3484 58.3369 36.3484C57.8469 36.3484 57.5374 35.9799 57.5374 35.3978C57.5374 34.8157 57.8506 34.4436 58.3295 34.4436C58.8453 34.4436 59.14 34.8268 59.14 35.4015ZM57.9758 35.3757C57.9758 35.9026 58.1085 36.0573 58.3443 36.0573C58.58 36.0573 58.7053 35.8657 58.7053 35.4126C58.7053 34.9005 58.5616 34.7457 58.3332 34.7457C58.0827 34.7457 57.9722 34.9336 57.9722 35.3757" fill="white"/>
<path d="M60.4074 36.3005V35.0957C60.4074 34.8489 60.3485 34.7789 60.1974 34.7789C60.0832 34.7789 59.9174 34.8636 59.7995 34.9815V36.2968H59.4127V34.9668C59.4127 34.7752 59.3942 34.6647 59.3464 34.5357L59.7037 34.4363C59.7442 34.521 59.7664 34.5984 59.7664 34.6941C59.9579 34.5284 60.1274 34.4436 60.3227 34.4436C60.6027 34.4436 60.7979 34.6131 60.7979 34.9447V36.3005H60.4074Z" fill="white"/>
<path d="M62.4005 36.3778C62.29 36.3336 62.1979 36.2489 62.1537 36.1347C62.0063 36.3005 61.8479 36.3557 61.6563 36.3557C61.24 36.3557 61.0558 36.1273 61.0558 35.8105C61.0558 35.3905 61.369 35.1805 61.9511 35.1805H62.0727V35.081C62.0727 34.8747 62.0358 34.7641 61.8221 34.7641C61.5606 34.7641 61.2842 34.9705 61.2842 34.9705L61.1074 34.6868C61.38 34.5173 61.6048 34.4399 61.8774 34.4399C62.15 34.4399 62.349 34.5468 62.43 34.742C62.4632 34.8194 62.4632 34.9189 62.4595 35.1878L62.4521 35.7073C62.4521 35.9505 62.4705 36.0315 62.6105 36.1273L62.4042 36.3778H62.4005ZM61.9916 35.4457C61.5974 35.4457 61.4795 35.5636 61.4795 35.7884C61.4795 35.9615 61.5716 36.0684 61.73 36.0684C61.859 36.0684 61.9769 35.991 62.0579 35.8768L62.0653 35.4457C62.0653 35.4457 62.0211 35.442 61.9953 35.442" fill="white"/>
<path d="M2.21198 36.3041L2.09777 34.7678C2.08672 34.6094 2.07935 34.4252 2.07935 34.3478C2.06093 34.4289 2.02777 34.5763 1.98356 34.7347L1.53041 36.3041H1.17672L0.764095 34.8047C0.716201 34.6389 0.671991 34.4289 0.657254 34.3442C0.657254 34.4289 0.642517 34.6499 0.631465 34.8047L0.524623 36.3041H0.123047L0.347782 33.8247H0.896726L1.2762 35.2284C1.33146 35.4384 1.35357 35.5673 1.3683 35.641C1.37935 35.5673 1.41251 35.4089 1.45672 35.2357L1.84725 33.8247H2.39619L2.61356 36.3041H2.2083H2.21198Z" fill="white"/>
<path d="M4.07986 36.3778C3.96934 36.3373 3.87355 36.2489 3.83302 36.1347C3.68566 36.3005 3.52724 36.3557 3.33566 36.3557C2.91935 36.3557 2.73514 36.1273 2.73514 35.8105C2.73514 35.3941 3.04829 35.1805 3.63039 35.1805H3.75197V35.0847C3.75197 34.8784 3.71513 34.7641 3.50145 34.7641C3.23987 34.7641 2.95987 34.9741 2.95987 34.9741L2.78303 34.6905C3.05566 34.5173 3.2804 34.4436 3.55303 34.4436C3.82566 34.4436 4.0246 34.5468 4.10565 34.7457C4.13881 34.8231 4.13881 34.9226 4.13513 35.1915L4.12776 35.711C4.12407 35.9541 4.14618 36.0352 4.28618 36.131L4.08355 36.3815L4.07986 36.3778ZM3.67092 35.4457C3.27671 35.4457 3.15882 35.5636 3.15882 35.792C3.15882 35.9652 3.25092 36.072 3.40934 36.072C3.5346 36.072 3.65618 35.9947 3.73355 35.8805L3.74092 35.4494C3.74092 35.4494 3.69671 35.4457 3.66723 35.4457" fill="white"/>
<path d="M5.53512 36.3041V35.0994C5.53512 34.8526 5.47986 34.7826 5.3288 34.7826C5.21459 34.7826 5.04881 34.8673 4.93091 34.9852V36.3005H4.54407V34.9668C4.54407 34.7789 4.52565 34.6684 4.47407 34.5394L4.83144 34.4399C4.87565 34.5247 4.89775 34.602 4.89775 34.6978C5.08933 34.532 5.2588 34.4473 5.45407 34.4473C5.73406 34.4473 5.92564 34.6168 5.92564 34.9484V36.3041H5.53512Z" fill="white"/>
<path d="M6.69564 34.4878H7.13037L7.02721 34.7605H6.69564V35.781C6.69564 36.0057 6.74722 36.072 6.91669 36.072C6.97195 36.072 7.01616 36.061 7.08616 36.0352L7.13774 36.271C7.01985 36.3262 6.90564 36.3484 6.78406 36.3484C6.43406 36.3484 6.31248 36.142 6.31248 35.8841V34.7641H6.11354V34.4915H6.31248C6.31248 34.3368 6.31248 34.182 6.3309 34.0457L6.73616 33.9499C6.71774 34.0973 6.70301 34.3147 6.70301 34.4952" fill="white"/>
<path d="M7.64984 35.5047V35.5341C7.64984 35.7847 7.74563 36.0499 8.09931 36.0499C8.26878 36.0499 8.41247 35.9873 8.54878 35.8694L8.70352 36.1089C8.51563 36.271 8.29457 36.3484 8.05142 36.3484C7.53932 36.3484 7.21511 35.9836 7.21511 35.4015C7.21511 35.0847 7.28511 34.871 7.43984 34.6905C7.58721 34.521 7.76405 34.4473 7.99616 34.4473C8.17668 34.4473 8.33878 34.4915 8.49352 34.6352C8.65194 34.7789 8.72931 34.9999 8.72931 35.4236V35.5047H7.64616H7.64984ZM7.99616 34.742C7.7751 34.742 7.65353 34.9189 7.65353 35.2136H8.32405C8.32405 34.9226 8.1951 34.742 7.99616 34.742Z" fill="white"/>
<path d="M10.4867 35.4015C10.4867 35.9836 10.1735 36.3447 9.68351 36.3447C9.19352 36.3447 8.88404 35.9799 8.88404 35.3978C8.88404 34.8157 9.1972 34.4436 9.67614 34.4436C10.1919 34.4436 10.4867 34.8268 10.4867 35.4015ZM9.32246 35.3757C9.32246 35.9026 9.45509 36.0573 9.69088 36.0573C9.92667 36.0573 10.0519 35.8694 10.0519 35.4126C10.0519 34.9005 9.90825 34.7457 9.67983 34.7457C9.4293 34.7457 9.32246 34.9336 9.32246 35.3757Z" fill="white"/>
<path d="M11.1535 36.341C10.7556 36.341 10.7556 35.9836 10.7556 35.8289V34.2852C10.7556 34.0384 10.7446 33.9057 10.7188 33.7547L11.124 33.6663C11.1535 33.7768 11.1572 33.9278 11.1572 34.1636V35.6999C11.1572 35.9431 11.1682 35.9836 11.1977 36.0278C11.2198 36.061 11.2788 36.0794 11.3267 36.0573L11.393 36.3005C11.323 36.3299 11.2456 36.3447 11.1572 36.3447" fill="white"/>
<path d="M12.8482 36.3778C12.7377 36.3373 12.6456 36.2489 12.6014 36.1347C12.454 36.3005 12.2956 36.3557 12.104 36.3557C11.6877 36.3557 11.5035 36.1273 11.5035 35.8105C11.5035 35.3941 11.8203 35.1805 12.3988 35.1805H12.5203V35.0847C12.5203 34.8784 12.4835 34.7641 12.2698 34.7641C12.0082 34.7641 11.7282 34.9741 11.7282 34.9741L11.5514 34.6905C11.824 34.5173 12.0488 34.4436 12.3214 34.4436C12.594 34.4436 12.793 34.5468 12.874 34.7457C12.9072 34.8231 12.9072 34.9226 12.9035 35.1915L12.8961 35.711C12.8924 35.9541 12.9145 36.0352 13.0509 36.131L12.8482 36.3815V36.3778ZM12.4393 35.4457C12.0451 35.4457 11.9272 35.5636 11.9272 35.792C11.9272 35.9652 12.0193 36.072 12.1777 36.072C12.303 36.072 12.4245 35.9947 12.5056 35.8805L12.513 35.4494C12.513 35.4494 12.4724 35.4457 12.443 35.4457" fill="white"/>
<path d="M16.0682 36.3484C15.7882 36.3484 15.5008 36.271 15.254 36.1273L15.4124 35.8105C15.6335 35.9394 15.8324 36.0131 16.0829 36.0131C16.3887 36.0131 16.5693 35.8657 16.5693 35.6189C16.5693 35.4347 16.455 35.3205 16.2008 35.2505L15.9356 35.1731C15.7108 35.1068 15.5487 35.0147 15.4566 34.8747C15.3866 34.7752 15.3535 34.6573 15.3535 34.5136C15.3535 34.0752 15.6961 33.7805 16.1935 33.7805C16.4772 33.7805 16.7608 33.8615 16.9782 34.0163L16.7903 34.3073C16.5619 34.171 16.4035 34.1194 16.2045 34.1194C15.9614 34.1194 15.7993 34.252 15.7993 34.4547C15.7993 34.6094 15.884 34.6868 16.1272 34.7605L16.4219 34.8452C16.7793 34.9484 17.0298 35.1805 17.0298 35.5526C17.0298 35.9652 16.6982 36.3484 16.0608 36.3484" fill="white"/>
<path d="M18.5514 36.3778C18.4408 36.3336 18.3487 36.2489 18.3045 36.1347C18.1571 36.3005 18.0024 36.3594 17.8071 36.3594C17.3908 36.3594 17.2066 36.131 17.2066 35.8141C17.2066 35.3941 17.5235 35.1841 18.1019 35.1841H18.2235V35.0847C18.2235 34.8784 18.1866 34.7678 17.9729 34.7678C17.7114 34.7678 17.4314 34.9741 17.4314 34.9741L17.2545 34.6905C17.5271 34.521 17.7519 34.4436 18.0245 34.4436C18.2971 34.4436 18.4961 34.5468 18.5771 34.7457C18.6103 34.8231 18.6103 34.9226 18.6066 35.1915L18.5992 35.711C18.5992 35.9541 18.6177 36.0352 18.7577 36.131L18.555 36.3815L18.5514 36.3778ZM18.4777 33.9315L17.6893 34.2963L17.5677 34.0715L18.3008 33.5999L18.4814 33.9315H18.4777ZM18.1424 35.4457C17.7482 35.4457 17.6303 35.5636 17.6303 35.7884C17.6303 35.9615 17.7224 36.0684 17.8808 36.0684C18.0061 36.0684 18.1277 35.991 18.2087 35.8768L18.2161 35.4457C18.2161 35.4457 18.1719 35.442 18.1424 35.442" fill="white"/>
<path d="M19.9956 36.3005V35.0957C19.9956 34.8489 19.9403 34.7789 19.7892 34.7789C19.675 34.7789 19.5092 34.8636 19.3913 34.9815V36.2968H19.0045V34.9631C19.0045 34.7715 18.9861 34.661 18.9382 34.532L19.2956 34.4326C19.3398 34.5136 19.3619 34.5947 19.3619 34.6905C19.5535 34.5247 19.7229 34.4399 19.9182 34.4399C20.1982 34.4399 20.3898 34.6094 20.3898 34.941V36.2968H19.9992L19.9956 36.3005Z" fill="white"/>
<path d="M21.414 36.3484C20.9203 36.3484 20.644 36.002 20.644 35.4162C20.644 34.7568 21.0382 34.4436 21.4434 34.4436C21.6387 34.4436 21.7824 34.4915 21.9445 34.6426L21.7455 34.9041C21.6387 34.8084 21.5429 34.7641 21.4398 34.7641C21.3145 34.7641 21.2113 34.8305 21.1524 34.9484C21.0971 35.0589 21.075 35.2247 21.075 35.4531C21.075 35.7036 21.1155 35.8584 21.1966 35.9468C21.2519 36.0094 21.3403 36.0499 21.4361 36.0499C21.5613 36.0499 21.6829 35.9873 21.8008 35.8694L21.985 36.1089C21.8192 36.2747 21.6498 36.3484 21.4066 36.3484" fill="white"/>
<path d="M23.234 36.3005V35.0663C23.234 34.8415 23.1529 34.7752 23.0055 34.7752C22.8655 34.7752 22.6961 34.8636 22.5671 34.9963V36.2968H22.1692V34.1415C22.1692 33.9794 22.1545 33.8394 22.1324 33.7473L22.5303 33.6626C22.5561 33.7657 22.5671 33.9131 22.5671 34.0899V34.4768C22.5671 34.591 22.5597 34.6831 22.5597 34.6831C22.7403 34.521 22.9208 34.4473 23.1161 34.4473C23.3297 34.4473 23.4955 34.5505 23.5582 34.6684C23.6061 34.7568 23.6208 34.8415 23.6208 35.022V36.3005H23.234Z" fill="white"/>
<path d="M24.295 35.5341C24.295 35.7847 24.3871 36.0499 24.7445 36.0499C24.9139 36.0499 25.0613 35.9873 25.1976 35.8694L25.3524 36.1089C25.1645 36.271 24.9434 36.3484 24.7003 36.3484C24.1882 36.3484 23.864 35.9799 23.864 35.3978C23.864 35.0773 23.9303 34.8673 24.0887 34.6868C24.2361 34.521 24.4166 34.4436 24.645 34.4436C24.8218 34.4436 24.9876 34.4878 25.1424 34.6315C25.3008 34.7752 25.3782 34.9963 25.3782 35.4199V35.501H24.295V35.5341ZM24.6413 34.742C24.4203 34.742 24.2987 34.9189 24.2987 35.2099H24.9692C24.9692 34.9152 24.8403 34.742 24.645 34.742" fill="white"/>
<path d="M26.7524 36.3005H25.4739V36.0389L26.3839 34.7678H25.5439V34.4878H26.8297V34.7678L25.9676 36.0278H26.8666L26.7524 36.3005Z" fill="white"/>
<path d="M28.6976 36.3336C28.3513 36.3336 28.0823 36.2231 27.8871 35.9836C27.6955 35.7515 27.6108 35.4715 27.6108 35.081C27.6108 34.5726 27.7655 34.2152 28.075 33.9831C28.2555 33.8468 28.4471 33.7915 28.6866 33.7915C28.9702 33.7915 29.2208 33.8763 29.4234 34.0531L29.2171 34.311C29.0439 34.1784 28.8855 34.1231 28.6939 34.1231C28.2371 34.1231 28.0676 34.5247 28.0676 35.1031C28.0676 35.4494 28.1339 35.6963 28.2481 35.8326C28.3476 35.9505 28.5281 36.0168 28.716 36.0168C28.845 36.0168 28.9518 35.9873 29.0476 35.9394V35.2947H28.6239L28.5687 34.9594H29.4676V36.1273C29.2429 36.2636 28.9702 36.3336 28.6939 36.3336" fill="white"/>
<path d="M31.3097 35.4015C31.3097 35.9836 30.9965 36.3484 30.5065 36.3484C30.0165 36.3484 29.7071 35.9762 29.7071 35.3978C29.7071 34.8194 30.0202 34.4436 30.4992 34.4436C31.015 34.4436 31.3097 34.8268 31.3097 35.4015ZM31.015 33.9315L30.2265 34.2963L30.105 34.0715L30.8344 33.5999L31.015 33.9315ZM30.1455 35.3757C30.1455 35.9026 30.2781 36.0573 30.5176 36.0573C30.7571 36.0573 30.8786 35.8657 30.8786 35.4126C30.8786 34.9005 30.735 34.7457 30.5065 34.7457C30.256 34.7457 30.1455 34.9373 30.1455 35.3757Z" fill="white"/>
<path d="M33.4797 35.0478C33.4797 34.8378 33.4355 34.7752 33.2955 34.7752C33.1628 34.7752 33.0376 34.8636 32.9123 34.9815V36.3005H32.5365V35.0589C32.5365 34.8452 32.4886 34.7789 32.3376 34.7789C32.2271 34.7789 32.0981 34.8378 31.9655 34.9594V36.3041H31.5823V35.0036C31.5823 34.7789 31.5602 34.6426 31.516 34.5468L31.8771 34.4473C31.9102 34.5063 31.9323 34.5799 31.9397 34.6794C32.0834 34.532 32.2528 34.451 32.4186 34.451C32.5844 34.451 32.7207 34.5063 32.8534 34.7163C33.0302 34.5357 33.1997 34.451 33.3949 34.451C33.6934 34.451 33.8665 34.6057 33.8665 34.9815V36.3078H33.4797V35.0478Z" fill="white"/>
<path d="M34.5555 35.5047V35.5341C34.5555 35.7847 34.6476 36.0499 35.0049 36.0499C35.1744 36.0499 35.3218 35.9873 35.4581 35.8694L35.6128 36.1089C35.4212 36.271 35.2039 36.3484 34.9607 36.3484C34.4486 36.3484 34.1281 35.9799 34.1281 35.3978C34.1281 35.0773 34.1981 34.8673 34.3528 34.6868C34.5002 34.521 34.6807 34.4436 34.9091 34.4436C35.0897 34.4436 35.2518 34.4878 35.4065 34.6315C35.5649 34.7752 35.6423 34.9963 35.6423 35.4199V35.501H34.5591L34.5555 35.5047ZM34.9018 34.742C34.6807 34.742 34.5591 34.9189 34.5591 35.2099H35.2297C35.2297 34.9152 35.1007 34.742 34.9055 34.742" fill="white"/>
<path d="M37.0128 36.3005H35.7344V36.0389L36.6444 34.7678H35.8081V34.4878H37.0902V34.7678L36.2281 36.0278H37.127L37.0128 36.3005Z" fill="white"/>
<path d="M40.347 36.3484C40.0633 36.3484 39.776 36.271 39.5328 36.1273L39.6912 35.8105C39.9123 35.9394 40.1112 36.0168 40.3617 36.0168C40.6675 36.0168 40.8481 35.8694 40.8481 35.6226C40.8481 35.4384 40.7338 35.3241 40.4796 35.2541L40.2144 35.1768C39.9896 35.1105 39.8275 35.022 39.7354 34.8784C39.6691 34.7789 39.6323 34.661 39.6323 34.5173C39.6323 34.0789 39.9786 33.7842 40.4759 33.7842C40.7596 33.7842 41.0396 33.8652 41.2607 34.0199L41.0728 34.311C40.8444 34.1747 40.6859 34.1231 40.4907 34.1231C40.2475 34.1231 40.0854 34.2557 40.0854 34.4584C40.0854 34.6131 40.1702 34.6905 40.4133 34.7641L40.7081 34.8489C41.0654 34.952 41.3159 35.1841 41.3159 35.5562C41.3159 35.9689 40.9844 36.352 40.347 36.352" fill="white"/>
<path d="M42.8301 36.3778C42.7196 36.3336 42.6275 36.2489 42.5833 36.1347C42.4359 36.3005 42.2775 36.3557 42.0859 36.3557C41.6696 36.3557 41.4817 36.1273 41.4817 35.8105C41.4817 35.3905 41.7986 35.1805 42.377 35.1805H42.4986V35.081C42.4986 34.8747 42.4617 34.7641 42.248 34.7641C41.9865 34.7641 41.7065 34.9705 41.7065 34.9705L41.5296 34.6868C41.8023 34.5173 42.027 34.4399 42.2996 34.4399C42.5723 34.4399 42.7749 34.5468 42.8523 34.742C42.8854 34.8194 42.8854 34.9189 42.8817 35.1878L42.8744 35.7073C42.8707 35.9505 42.8928 36.0315 43.0328 36.1273L42.8265 36.3778H42.8301ZM42.4249 35.4457C42.0307 35.4457 41.9128 35.5636 41.9128 35.7884C41.9128 35.9615 42.0049 36.0684 42.1633 36.0684C42.2886 36.0684 42.4101 35.991 42.4912 35.8768L42.4986 35.4457C42.4986 35.4457 42.4544 35.442 42.4249 35.442" fill="white"/>
<path d="M44.2743 36.3005V35.0957C44.2743 34.8489 44.2154 34.7789 44.068 34.7789C43.9538 34.7789 43.788 34.8636 43.6701 34.9815V36.2968H43.2833V34.9668C43.2833 34.7752 43.2649 34.6647 43.2133 34.5357L43.5707 34.4363C43.6112 34.521 43.6333 34.5984 43.6333 34.6941C43.8286 34.5284 43.9943 34.4436 44.1896 34.4436C44.4696 34.4436 44.6612 34.6131 44.6612 34.9447V36.3005H44.2707H44.2743Z" fill="white"/>
<path d="M45.4238 34.4878H45.8585L45.7554 34.7605H45.4238V35.781C45.4238 36.0057 45.4754 36.072 45.6449 36.072C45.7001 36.072 45.7443 36.061 45.8143 36.0352L45.8659 36.271C45.748 36.3262 45.6338 36.352 45.5122 36.352C45.1622 36.352 45.0407 36.1457 45.0407 35.8878V34.7641H44.8417V34.4915H45.0407C45.0407 34.3368 45.0407 34.182 45.0591 34.042L45.4643 33.9463C45.4496 34.0936 45.4312 34.311 45.4312 34.4915" fill="white"/>
<path d="M47.5312 35.4015C47.5312 35.9836 47.218 36.3484 46.728 36.3484C46.238 36.3484 45.9285 35.9799 45.9285 35.3978C45.9285 34.8157 46.2417 34.4436 46.7206 34.4436C47.2364 34.4436 47.5275 34.8268 47.5275 35.4015M46.3706 35.3757C46.3706 35.9026 46.5033 36.0573 46.7391 36.0573C46.9749 36.0573 47.1001 35.8657 47.1001 35.4126C47.1001 34.9005 46.9564 34.7457 46.728 34.7457C46.4775 34.7457 46.3706 34.9373 46.3706 35.3757Z" fill="white"/>
<path d="M48.3122 36.352C48.0912 36.352 47.8517 36.282 47.6159 36.1494L47.7559 35.8657C47.9143 35.9578 48.1391 36.0573 48.3454 36.0573C48.5148 36.0573 48.6401 35.9505 48.6401 35.8031C48.6401 35.6631 48.5517 35.5894 48.3454 35.5489L48.1243 35.5047C47.8517 35.4457 47.6896 35.2615 47.6896 35.0073C47.6896 34.6684 47.9622 34.4289 48.3638 34.4289C48.6106 34.4289 48.8096 34.5026 48.9643 34.5873L48.8354 34.8599C48.6659 34.7715 48.5333 34.7273 48.3896 34.7273C48.2201 34.7273 48.1133 34.8231 48.1133 34.9594C48.1133 35.0699 48.1759 35.1289 48.3564 35.1731L48.5812 35.2284C48.9459 35.3205 49.0454 35.5231 49.0454 35.7331C49.0454 36.0978 48.747 36.3484 48.3122 36.3484" fill="white"/>
<path d="M38.4533 32.141H38.1365V37.3173H38.4533V32.141Z" fill="white"/>
<path d="M50.438 32.141H50.1433V37.3136H50.438V32.141Z" fill="white"/>
<path d="M64.0511 32.141H63.7563V37.3173H64.0511V32.141Z" fill="white"/>
<path d="M76.2715 32.141H75.9768V37.3136H76.2715V32.141Z" fill="white"/>
<path d="M14.3293 32.13H14.0345V37.3136H14.3293V32.13Z" fill="white"/>
<path d="M66.6779 33.8321L66.2211 35.221C66.0995 35.5931 66.07 35.7441 66.07 35.7441H66.0626C66.0626 35.7441 66.0332 35.5599 65.9337 35.2431L65.4842 33.8321H65.0311L65.8711 36.3336H66.2579L67.1163 33.8321H66.6779ZM67.4479 34.2336C67.5953 34.2336 67.7132 34.1157 67.7132 33.972C67.7132 33.8284 67.5953 33.7068 67.4553 33.7068C67.3153 33.7068 67.1937 33.8247 67.1937 33.972C67.1937 34.1194 67.3042 34.2336 67.4479 34.2336ZM67.6505 34.462L67.2526 34.5357V36.3299H67.6505V34.462ZM69.5 36.3262V34.9668C69.5 34.6315 69.3047 34.462 69.0247 34.462C68.8295 34.462 68.66 34.5468 68.4684 34.7126C68.4684 34.6168 68.4463 34.5357 68.4021 34.451L68.041 34.5505C68.0926 34.6794 68.111 34.7936 68.111 34.9815V36.3226H68.4979V34.9999C68.6158 34.882 68.7816 34.7936 68.8995 34.7936C69.0505 34.7936 69.1095 34.8599 69.1095 35.1105V36.3189H69.5037L69.5 36.3262ZM71.1947 35.7552C71.1947 35.5415 71.0989 35.3426 70.7305 35.2468L70.5058 35.1878C70.3216 35.1399 70.2589 35.0847 70.2589 34.9705C70.2589 34.8305 70.3658 34.7347 70.5352 34.7347C70.6789 34.7347 70.8115 34.7789 70.981 34.8673L71.11 34.5947C70.9552 34.5099 70.7563 34.4363 70.5094 34.4363C70.1042 34.4363 69.8316 34.672 69.8316 35.0147C69.8316 35.2689 69.9937 35.4568 70.2663 35.5157L70.4873 35.5636C70.6937 35.6078 70.7821 35.6815 70.7821 35.8178C70.7821 35.9689 70.6605 36.072 70.4873 36.072C70.281 36.072 70.06 35.9762 69.8979 35.8805L69.7579 36.1641C69.9937 36.2931 70.2331 36.3668 70.4579 36.3668C70.8963 36.3668 71.1947 36.1162 71.1947 35.7478M72.1858 34.4584C71.7031 34.4584 71.39 34.8341 71.39 35.4162C71.39 35.9983 71.6994 36.3705 72.1931 36.3705C72.6868 36.3705 73 36.0057 73 35.4199C73 34.8341 72.7052 34.4584 72.1858 34.4584ZM72.1894 34.7568C72.4178 34.7568 72.5615 34.9115 72.5615 35.4273C72.5615 35.8841 72.4326 36.0757 72.2005 36.0757C71.9684 36.0757 71.8284 35.921 71.8284 35.3905C71.8284 34.9484 71.9352 34.7568 72.1894 34.7568ZM74.7315 36.3262V34.9668C74.7315 34.6315 74.5363 34.462 74.2563 34.462C74.061 34.462 73.8915 34.5468 73.6963 34.7126C73.6963 34.6168 73.6742 34.5357 73.63 34.451L73.2689 34.5505C73.3205 34.6794 73.3352 34.7936 73.3352 34.9815V36.3226H73.7257V34.9999C73.8436 34.882 74.0094 34.7936 74.1273 34.7936C74.2784 34.7936 74.3373 34.8599 74.3373 35.1105V36.3189H74.7315V36.3262Z" fill="white"/>
<path d="M89.1404 6.79012H86.8525L84.4283 14.1585C83.7799 16.1222 83.6251 16.9253 83.6251 16.9253H83.5883C83.5883 16.9253 83.4373 15.9527 82.9031 14.2727L80.512 6.79012H78.1062L82.5567 20.0532H84.5978L89.1404 6.79012Z" fill="white"/>
</svg>
