<svg width="120" height="16" viewBox="0 0 120 16" fill="none" xmlns="http://www.w3.org/2000/svg">
<path fill-rule="evenodd" clip-rule="evenodd" d="M3.25236 11.8986C3.25236 13.0398 3.23403 13.8601 4.3019 14.4743V14.5293H0.722473V14.4743C1.79493 13.8601 1.79493 13.0398 1.79493 11.8986V3.846C1.79493 2.7048 1.79493 1.889 0.740806 1.2932V1.2382H3.70609V1.25653C3.79317 1.49485 3.87108 1.5911 4.00858 1.75151L4.28815 2.14566L11.7037 11.4998V3.846C11.7037 2.7048 11.722 1.89359 10.6541 1.2932V1.2382H14.2198V1.2932C13.1611 1.889 13.1611 2.7048 13.1611 3.846V15.1892C11.722 14.708 11.1078 14.0251 10.205 12.8748L3.25236 4.07057V11.8986Z" fill="white"/>
<path fill-rule="evenodd" clip-rule="evenodd" d="M25.5447 0.871548C21.2961 0.779886 17.9459 3.98349 17.9459 7.83332C17.9459 11.9765 21.3328 14.8684 25.3431 14.8684C29.3533 14.8684 32.7861 11.8573 32.7861 7.72791C32.7861 4.07974 29.807 0.853216 25.5447 0.871548ZM25.3889 2.34273C28.6062 2.34273 30.4762 5.17969 30.4762 8.13123C30.4762 11.0828 28.5237 13.411 25.4347 13.411C22.3457 13.411 20.2604 10.4778 20.2604 7.65C20.2604 4.5793 22.2632 2.34273 25.3889 2.34273Z" fill="white"/>
<path fill-rule="evenodd" clip-rule="evenodd" d="M42.1356 1.2382C44.8534 1.2382 46.3292 2.6498 46.3292 4.46014C46.3292 6.27048 44.7709 7.65 43.1027 8.03498L46.0267 11.7015C46.87 12.7602 48.1441 13.8097 49.3037 14.5293H47.4429C46.3659 14.5293 45.6876 14.2635 45.0963 13.5347L42.6215 10.464L40.747 7.60875C42.3831 7.37501 44.2622 6.61879 44.2622 4.72138C44.2622 3.27311 43.0064 2.4344 41.6498 2.49398C41.1915 2.50773 40.7286 2.56272 40.2657 2.6498V11.7061C40.2657 12.6319 40.1557 14.1168 41.1869 14.4743V14.5293H37.3188V14.4743C38.3362 14.1168 38.1896 12.6135 38.1896 11.7061V4.07057C38.1896 3.14478 38.3362 1.67818 37.3188 1.2932V1.2382H42.1356Z" fill="white"/>
<path fill-rule="evenodd" clip-rule="evenodd" d="M53.126 11.619C53.126 12.8106 53.2406 13.7868 52.2414 14.4697V14.5247H57.1041C61.6323 14.5247 64.6938 11.7336 64.6938 7.74624C64.6938 3.75892 61.8202 1.2382 57.2096 1.2382H52.246V1.2932C53.2681 1.5911 53.1306 3.06687 53.1306 3.98349V11.619H53.126ZM55.1976 2.91104C55.8163 2.76896 56.4121 2.69563 57.0125 2.69563C60.404 2.69563 62.3977 4.44639 62.3977 7.99373C62.3977 11.5411 59.7028 13.0764 56.6779 13.0764C56.1783 13.0764 55.6788 13.0398 55.2021 12.9389V2.91104H55.1976Z" fill="white"/>
<path fill-rule="evenodd" clip-rule="evenodd" d="M71.9581 12.8335L74.5384 13.0718C75.8721 13.1956 77.2699 12.7785 78.2828 11.8848H78.347L77.4303 14.5293H68.979V14.4743C70.0194 14.1168 69.8911 12.6135 69.8911 11.7061V4.07057C69.8911 3.14478 70.024 1.67818 68.979 1.2932V1.2382H75.455C75.8079 1.2382 76.1516 1.27486 76.4083 1.13279H76.4725V3.50226H76.4083C75.7896 2.76438 74.9554 2.69105 74.0251 2.69105C73.3193 2.69105 72.6043 2.70022 71.9581 2.83313V6.57755H74.3505C74.6988 6.57755 75.0196 6.57755 75.2488 6.45838H75.3129V8.60787H75.2488C74.9325 8.01665 74.0801 8.03956 73.4613 8.03956H71.9535V12.8381L71.9581 12.8335Z" fill="white"/>
<path fill-rule="evenodd" clip-rule="evenodd" d="M88.0907 13.0718C89.4885 13.1452 90.671 12.6914 91.6747 11.839H91.7343L90.7077 14.5293H82.3709V14.4743C83.4113 14.1168 83.2876 12.6135 83.2876 11.7061V4.07057C83.2876 3.14478 83.4159 1.67818 82.3709 1.2932V1.2382H86.2391V1.2932C85.2033 1.67818 85.3408 3.17228 85.3408 4.07057V12.8977L88.0907 13.0718Z" fill="white"/>
<path fill-rule="evenodd" clip-rule="evenodd" d="M98.8198 11.8986C98.8198 13.0535 98.7923 13.8601 99.8693 14.4743V14.5293H95.8637V14.4743C96.8811 14.0939 96.7436 12.6135 96.7436 11.7061V2.69563H94.9654C94.0854 2.69563 93.1825 2.91104 92.5547 3.50685H92.4951L93.21 1.09612H93.2788C93.5171 1.19695 93.7692 1.19695 94.0304 1.24278H102.106C102.44 1.24278 102.757 1.21528 103.041 1.09612H103.096L102.44 3.50685H102.385C102.129 2.79646 101.313 2.69563 100.644 2.69563H98.8198V11.8986Z" fill="white"/>
<path fill-rule="evenodd" clip-rule="evenodd" d="M114.164 9.51992L115.255 12.3935C115.814 13.8143 115.984 14.0251 114.98 14.4743V14.5293H119.123V14.4743C117.996 13.8876 117.606 12.7602 117.152 11.5915L112.927 1.2382H109.746V1.2932C110.722 1.5911 110.323 2.45273 110.039 3.17228L106.648 11.5961C106.212 12.7648 105.878 13.8922 104.695 14.4789V14.5339H108.431V14.4789C107.45 14.1214 107.596 13.5439 108.032 12.3981L109.068 9.5245H114.169L114.164 9.51992ZM113.582 8.03956H109.595L111.593 2.95229L113.582 8.03956Z" fill="white"/>
</svg>
