<svg width="107" height="27" viewBox="0 0 107 27" fill="none" xmlns="http://www.w3.org/2000/svg">
<path d="M0.0292969 6.8123H3.72146V8.64199C3.72146 8.88288 4.01958 8.99307 4.17501 8.80856C4.44256 8.49336 4.74323 8.20379 5.08722 7.92703C6.00963 7.18388 7.37794 6.44072 9.26097 6.44072C13.3226 6.44072 16.2784 9.3749 16.2784 14.2413V24.6403H12.5862V14.2413C12.5862 11.6044 10.9249 9.96942 8.52458 9.96942C5.75482 9.96942 3.724 12.0118 3.724 14.9844V24.6403H0.0292969V6.8123Z" fill="white"/>
<path d="M48.4223 25.0119C44.8779 25.0119 42.8828 22.9695 42.8828 19.0692V10.341H39.5601V6.8123H41.5909C43.2192 6.8123 43.2523 6.8123 43.2523 4.76991V0.869629H46.575V6.8123H50.6366V10.341H46.575V18.6976C46.575 20.5555 47.4235 21.4832 49.1613 21.4832H50.6723V25.0119H48.4223Z" fill="white"/>
<path d="M20.9796 25.2938L18.406 22.703L25.3444 15.725L18.406 8.74706L20.9796 6.15884L30.4915 15.725L20.9796 25.2938Z" fill="white"/>
<path d="M37.4325 8.65737L34.864 6.15884L29.2353 11.8171L31.7783 14.3745L37.4325 8.65737Z" fill="white"/>
<path d="M29.2634 19.6074L34.9456 25.2938L37.4325 22.7107L31.8063 17.0499L29.2634 19.6074Z" fill="white"/>
<path d="M60.6429 17.3625C60.1766 17.3625 59.7511 17.278 59.3714 17.1063C58.9917 16.9371 58.6656 16.6988 58.4006 16.3913C58.133 16.0838 57.9266 15.7199 57.7789 15.2945C57.6311 14.8717 57.5572 14.4078 57.5572 13.9056C57.5572 13.4033 57.6285 12.96 57.7687 12.5397C57.9088 12.1194 58.1152 11.753 58.3802 11.4429C58.6477 11.1328 58.9739 10.8894 59.3612 10.71C59.7485 10.5306 60.1868 10.4409 60.6786 10.4409C61.0659 10.4409 61.4124 10.4948 61.7207 10.5973C62.029 10.7023 62.2915 10.8484 62.5132 11.038C62.7349 11.2277 62.9132 11.4506 63.0534 11.7094C63.191 11.9682 63.2827 12.2501 63.326 12.5525H62.5157C62.4367 12.1399 62.238 11.8042 61.922 11.548C61.6061 11.2917 61.1856 11.1636 60.6633 11.1636C60.3014 11.1636 59.9804 11.2328 59.7001 11.3737C59.4198 11.5147 59.1854 11.7043 58.9917 11.9503C58.7981 12.1938 58.6528 12.4859 58.5535 12.819C58.4541 13.1547 58.4057 13.5161 58.4057 13.9056C58.4057 14.2951 58.4592 14.6872 58.5662 15.0203C58.6732 15.356 58.8261 15.6405 59.0223 15.8813C59.2185 16.1197 59.4555 16.3042 59.7358 16.4349C60.0161 16.5656 60.3269 16.6296 60.6709 16.6296C60.9843 16.6296 61.257 16.5809 61.4863 16.481C61.7156 16.3836 61.9093 16.2504 62.0673 16.0838C62.2227 15.9172 62.345 15.7225 62.4316 15.4995C62.5183 15.2766 62.5692 15.0459 62.5871 14.805H63.4075C63.4024 15.1382 63.326 15.4739 63.1808 15.8096C63.0355 16.1453 62.847 16.4323 62.6151 16.6655C62.1412 17.1293 61.4837 17.36 60.6429 17.36" fill="white"/>
<path d="M66.2537 17.342C65.897 17.342 65.5785 17.2754 65.2957 17.1421C65.0128 17.0089 64.7708 16.8269 64.572 16.5989C64.3733 16.3708 64.2178 16.1017 64.1108 15.7968C64.0038 15.4893 63.9503 15.1638 63.9503 14.8179C63.9503 14.4719 64.0038 14.1439 64.1108 13.8389C64.2178 13.5314 64.3707 13.2649 64.572 13.0369C64.7708 12.8088 65.0128 12.6268 65.2957 12.4936C65.5785 12.3603 65.897 12.2937 66.2537 12.2937C66.6105 12.2937 66.929 12.3603 67.2118 12.4936C67.4947 12.6268 67.7342 12.8062 67.9355 13.0369C68.1342 13.2649 68.2871 13.534 68.3916 13.8389C68.496 14.1465 68.5496 14.4719 68.5496 14.8179C68.5496 15.1638 68.496 15.4918 68.3916 15.7968C68.2871 16.1043 68.1342 16.3708 67.9355 16.5989C67.7367 16.8269 67.4947 17.0089 67.2118 17.1421C66.929 17.2754 66.6105 17.342 66.2537 17.342ZM66.2537 16.7142C66.506 16.7142 66.7277 16.6655 66.9162 16.5656C67.1073 16.4656 67.2653 16.3324 67.3953 16.1607C67.5252 15.9915 67.6221 15.7916 67.6858 15.561C67.7495 15.3329 67.7826 15.0844 67.7826 14.8179C67.7826 14.5514 67.7495 14.3028 67.6858 14.0747C67.6221 13.8466 67.5252 13.6442 67.3953 13.4699C67.2653 13.2957 67.1073 13.1599 66.9162 13.0625C66.7251 12.9625 66.5035 12.9138 66.2537 12.9138C66.004 12.9138 65.7798 12.9625 65.5862 13.0625C65.3925 13.1624 65.232 13.2982 65.102 13.4699C64.9721 13.6442 64.8752 13.8441 64.8115 14.0747C64.7478 14.3028 64.7147 14.5514 64.7147 14.8179C64.7147 15.0844 64.7478 15.3329 64.8115 15.561C64.8752 15.7891 64.9721 15.989 65.102 16.1607C65.232 16.3298 65.3925 16.4656 65.5862 16.5656C65.7798 16.6655 66.0015 16.7142 66.2537 16.7142Z" fill="white"/>
<path d="M70.03 13.0522H70.0478C70.2186 12.8242 70.4275 12.6397 70.6696 12.5013C70.9116 12.3629 71.2097 12.2937 71.5588 12.2937C72.0557 12.2937 72.4481 12.4244 72.7335 12.6883C73.0189 12.9523 73.1616 13.3341 73.1616 13.8364V17.2113H72.415V13.8979C72.415 13.5827 72.3207 13.3392 72.1296 13.1727C71.9385 13.0061 71.676 12.9215 71.3372 12.9215C71.146 12.9215 70.9728 12.9549 70.8122 13.0189C70.6517 13.083 70.5141 13.1752 70.3969 13.288C70.2797 13.4033 70.1905 13.5417 70.1243 13.7057C70.0606 13.8697 70.0274 14.0516 70.0274 14.249V17.2088H69.2809V12.4193H70.0274V13.0497L70.03 13.0522Z" fill="white"/>
<path d="M75.9441 17.342C75.2867 17.342 74.7796 17.196 74.4229 16.9013C74.0661 16.6091 73.8699 16.1889 73.8343 15.6456H74.5987C74.6242 15.8557 74.6751 16.03 74.7567 16.1632C74.8357 16.299 74.935 16.4067 75.0548 16.4887C75.1746 16.5681 75.3121 16.6271 75.465 16.6604C75.6179 16.6937 75.7835 16.7116 75.9619 16.7116C76.3543 16.7116 76.6371 16.6347 76.8104 16.4836C76.9811 16.3324 77.0678 16.1427 77.0678 15.9198C77.0678 15.784 77.0448 15.6712 76.999 15.579C76.9531 15.4893 76.8792 15.4124 76.7773 15.3509C76.6754 15.2894 76.548 15.2356 76.39 15.192C76.2346 15.1484 76.0434 15.1023 75.8243 15.0536C75.5899 15.0049 75.3657 14.9511 75.1516 14.8947C74.9376 14.8384 74.7465 14.7589 74.5859 14.6564C74.4229 14.5539 74.2929 14.4181 74.1935 14.2515C74.0942 14.085 74.0458 13.8697 74.0458 13.6083C74.0458 13.206 74.191 12.8831 74.484 12.6448C74.7745 12.4065 75.2 12.286 75.7606 12.286C76.3569 12.286 76.8028 12.4193 77.1009 12.6832C77.399 12.9497 77.5748 13.3162 77.6309 13.7851H76.8665C76.8282 13.4699 76.7212 13.2393 76.5429 13.0958C76.3645 12.9497 76.097 12.878 75.7402 12.878C75.3835 12.878 75.1516 12.9446 75.0038 13.0779C74.856 13.2111 74.7821 13.3751 74.7821 13.5673C74.7821 13.698 74.8102 13.8056 74.8662 13.8876C74.9223 13.9722 75.0038 14.0414 75.1159 14.0978C75.2255 14.1541 75.3606 14.2003 75.5211 14.2362C75.6816 14.2746 75.8625 14.313 76.0638 14.3566C76.3033 14.4053 76.5301 14.4617 76.7416 14.5206C76.9531 14.5795 77.1417 14.6641 77.3047 14.7717C77.4678 14.8794 77.5952 15.0203 77.687 15.1946C77.7787 15.3688 77.8245 15.5943 77.8245 15.8737C77.8245 16.1145 77.7787 16.3272 77.687 16.5117C77.5952 16.6937 77.4653 16.8474 77.2996 16.9679C77.134 17.0883 76.9353 17.1806 76.7059 17.2421C76.4766 17.3036 76.2218 17.3343 75.9466 17.3343" fill="white"/>
<path d="M78.138 12.4218H78.8285V10.9125H79.5751V12.4218H80.4975V13.0343H79.5751V16.1222C79.5751 16.2888 79.6158 16.4015 79.6999 16.4656C79.784 16.5297 79.9012 16.563 80.0541 16.563C80.128 16.563 80.2019 16.5553 80.2758 16.5399C80.3497 16.5246 80.4083 16.5117 80.4516 16.4989H80.4796V17.1473C80.393 17.1652 80.3013 17.1806 80.1994 17.1934C80.0974 17.2062 79.993 17.2113 79.8808 17.2113C79.5725 17.2113 79.3228 17.1421 79.1266 17.0038C78.9304 16.8654 78.831 16.6271 78.831 16.2914V13.0343H78.1405V12.4218H78.138Z" fill="white"/>
<path d="M82.0238 13.2188C82.1639 12.983 82.3576 12.7832 82.5996 12.6166C82.8417 12.45 83.122 12.3655 83.443 12.3655C83.5093 12.3655 83.5654 12.3706 83.6087 12.3783C83.652 12.3885 83.6979 12.4013 83.7463 12.4193V13.1419H83.7182C83.6622 13.124 83.6112 13.1112 83.5654 13.106C83.5195 13.1009 83.4583 13.0958 83.3844 13.0958C83.201 13.0958 83.0252 13.1291 82.8595 13.1983C82.6939 13.2675 82.5461 13.3623 82.4162 13.4853C82.2862 13.6083 82.1869 13.7621 82.113 13.944C82.0391 14.126 82.0034 14.3284 82.0034 14.5514V17.2113H81.2568V12.4218H82.0034V13.2188H82.0238Z" fill="white"/>
<path d="M87.441 17.2139V16.5553H87.4231C87.2524 16.7911 87.0562 16.9807 86.8371 17.1242C86.618 17.2703 86.3351 17.342 85.986 17.342C85.4942 17.342 85.1044 17.2036 84.8165 16.9243C84.5285 16.645 84.3833 16.2555 84.3833 15.7532V12.4244H85.1299V15.7378C85.1299 16.053 85.2242 16.2965 85.4102 16.4682C85.5987 16.6399 85.8612 16.7244 86.1975 16.7244C86.3886 16.7244 86.5593 16.6911 86.7148 16.6219C86.8677 16.5527 86.9976 16.4579 87.1072 16.3375C87.2142 16.217 87.2983 16.0761 87.3569 15.9147C87.4155 15.7532 87.4435 15.5764 87.4435 15.3842V12.4244H88.1901V17.2139H87.441Z" fill="white"/>
<path d="M89.1915 10.5896H89.9381V11.5172H89.1915V10.5896ZM89.1915 12.4218H89.9381V17.2113H89.1915V12.4218Z" fill="white"/>
<path d="M90.942 12.4218H91.6886V13.1086H91.7065C91.8542 12.8728 92.0479 12.6807 92.2925 12.5243C92.5346 12.3706 92.8072 12.2937 93.1079 12.2937C93.4086 12.2937 93.6583 12.3655 93.8723 12.5115C94.0864 12.6576 94.2469 12.8677 94.3514 13.147H94.3692C94.5221 12.8703 94.731 12.6576 94.9909 12.5115C95.2508 12.3655 95.5311 12.2937 95.8242 12.2937C96.2471 12.2937 96.5937 12.4244 96.8663 12.6883C97.1364 12.9523 97.2715 13.3341 97.2715 13.8364V17.2113H96.5249V13.8697C96.5249 13.5724 96.4382 13.3392 96.2675 13.1727C96.0968 13.0061 95.8904 12.9215 95.6509 12.9215C95.498 12.9215 95.3502 12.9549 95.2075 13.0189C95.0674 13.083 94.9425 13.1752 94.8355 13.288C94.7285 13.4033 94.6418 13.5391 94.5781 13.698C94.5144 13.8569 94.4813 14.0286 94.4813 14.2157V17.2113H93.7347V13.8697C93.7347 13.5724 93.6583 13.3392 93.5079 13.1727C93.3576 13.0061 93.1589 12.9215 92.9142 12.9215C92.7665 12.9215 92.6212 12.9549 92.476 13.0189C92.3307 13.083 92.2008 13.1752 92.0836 13.288C91.9664 13.4033 91.8721 13.5391 91.7982 13.698C91.7243 13.8569 91.6886 14.0286 91.6886 14.2157V17.2113H90.942V12.4218Z" fill="white"/>
<path d="M100.283 17.342C99.9265 17.342 99.608 17.2754 99.3252 17.1421C99.0424 17.0089 98.8003 16.8269 98.6015 16.5989C98.4028 16.3708 98.2474 16.1017 98.1403 15.7968C98.0333 15.4893 97.9798 15.1638 97.9798 14.8179C97.9798 14.4719 98.0333 14.1439 98.1403 13.8389C98.2474 13.5314 98.4002 13.2649 98.6015 13.0369C98.8003 12.8088 99.0424 12.6268 99.3252 12.4936C99.608 12.3603 99.9265 12.2937 100.283 12.2937C100.64 12.2937 100.959 12.3603 101.241 12.4936C101.524 12.6268 101.764 12.8062 101.965 13.0369C102.164 13.2649 102.317 13.534 102.421 13.8389C102.526 14.1465 102.579 14.4719 102.579 14.8179C102.579 15.1638 102.526 15.4918 102.421 15.7968C102.317 16.1043 102.164 16.3708 101.965 16.5989C101.766 16.8269 101.524 17.0089 101.241 17.1421C100.959 17.2754 100.64 17.342 100.283 17.342ZM100.283 16.7142C100.536 16.7142 100.757 16.6655 100.946 16.5656C101.137 16.4656 101.295 16.3324 101.425 16.1607C101.555 15.9915 101.652 15.7916 101.715 15.561C101.779 15.3329 101.812 15.0844 101.812 14.8179C101.812 14.5514 101.779 14.3028 101.715 14.0747C101.652 13.8466 101.555 13.6442 101.425 13.4699C101.295 13.2957 101.137 13.1599 100.946 13.0625C100.755 12.9625 100.533 12.9138 100.283 12.9138C100.034 12.9138 99.8093 12.9625 99.6157 13.0625C99.422 13.1624 99.2615 13.2982 99.1315 13.4699C99.0016 13.6442 98.9048 13.8441 98.8411 14.0747C98.7774 14.3028 98.7442 14.5514 98.7442 14.8179C98.7442 15.0844 98.7774 15.3329 98.8411 15.561C98.9048 15.7891 99.0016 15.989 99.1315 16.1607C99.2615 16.3298 99.422 16.4656 99.6157 16.5656C99.8093 16.6655 100.031 16.7142 100.283 16.7142Z" fill="white"/>
<path d="M105.12 17.342C104.462 17.342 103.955 17.196 103.598 16.9013C103.242 16.6091 103.045 16.1889 103.01 15.6456H103.774C103.8 15.8557 103.851 16.03 103.932 16.1632C104.011 16.299 104.11 16.4067 104.23 16.4887C104.35 16.5681 104.488 16.6271 104.64 16.6604C104.793 16.6937 104.959 16.7116 105.137 16.7116C105.53 16.7116 105.813 16.6347 105.986 16.4836C106.157 16.3324 106.243 16.1427 106.243 15.9198C106.243 15.784 106.22 15.6712 106.174 15.579C106.129 15.4893 106.055 15.4124 105.953 15.3509C105.851 15.2894 105.723 15.2356 105.565 15.192C105.41 15.1484 105.219 15.1023 105 15.0536C104.765 15.0049 104.541 14.9511 104.327 14.8947C104.113 14.8384 103.922 14.7589 103.761 14.6564C103.598 14.5539 103.468 14.4181 103.369 14.2515C103.27 14.085 103.221 13.8697 103.221 13.6083C103.221 13.206 103.366 12.8831 103.659 12.6448C103.95 12.4065 104.375 12.286 104.936 12.286C105.532 12.286 105.978 12.4193 106.276 12.6832C106.574 12.9497 106.75 13.3162 106.806 13.7851H106.042C106.006 13.4699 105.897 13.2393 105.718 13.0958C105.54 12.9497 105.272 12.878 104.916 12.878C104.559 12.878 104.327 12.9446 104.179 13.0779C104.031 13.2111 103.958 13.3751 103.958 13.5673C103.958 13.698 103.986 13.8056 104.042 13.8876C104.098 13.9722 104.179 14.0414 104.291 14.0978C104.401 14.1541 104.536 14.2003 104.697 14.2362C104.857 14.2746 105.038 14.313 105.239 14.3566C105.479 14.4053 105.706 14.4617 105.917 14.5206C106.129 14.5795 106.317 14.6641 106.48 14.7717C106.643 14.8794 106.771 15.0203 106.862 15.1946C106.954 15.3688 107 15.5943 107 15.8737C107 16.1145 106.954 16.3272 106.862 16.5117C106.771 16.6937 106.641 16.8474 106.475 16.9679C106.309 17.0883 106.111 17.1806 105.881 17.2421C105.652 17.3036 105.397 17.3343 105.122 17.3343" fill="white"/>
<path d="M57.6948 20.0994H58.4413V20.7759H58.4592C58.6376 20.5299 58.849 20.3326 59.0937 20.1865C59.3383 20.0404 59.6364 19.9687 59.988 19.9687C60.2887 19.9687 60.5664 20.0251 60.8162 20.1404C61.0684 20.2557 61.2825 20.4197 61.4608 20.6324C61.6392 20.8451 61.7793 21.1116 61.8787 21.4268C61.9806 21.742 62.0316 22.0982 62.0316 22.4954C62.0316 22.8926 61.9832 23.2283 61.8889 23.541C61.7946 23.8536 61.657 24.1201 61.4787 24.3379C61.3003 24.5583 61.0837 24.7274 60.8238 24.8428C60.5664 24.9606 60.276 25.0196 59.9575 25.0196C59.6389 25.0196 59.3485 24.9658 59.1089 24.8633C58.8694 24.7582 58.6503 24.5762 58.4541 24.3174H58.4363V26.429H57.6897V20.1019L57.6948 20.0994ZM59.9065 24.3892C60.1333 24.3892 60.3346 24.3405 60.5053 24.2457C60.676 24.1509 60.8187 24.0176 60.9334 23.851C61.048 23.6845 61.1321 23.4846 61.1856 23.2565C61.2417 23.0284 61.2697 22.7773 61.2697 22.5031C61.2697 22.2289 61.2417 21.988 61.1856 21.7548C61.1296 21.5216 61.0455 21.3217 60.9334 21.15C60.8187 20.9809 60.6786 20.8477 60.5104 20.7503C60.3422 20.6555 60.1435 20.6068 59.9167 20.6068C59.6593 20.6068 59.4325 20.6555 59.2389 20.7554C59.0452 20.8553 58.8873 20.9912 58.765 21.1629C58.6426 21.3371 58.5509 21.537 58.4898 21.7676C58.4286 21.9957 58.398 22.2417 58.398 22.5005C58.398 22.7594 58.4261 23.0054 58.4821 23.2334C58.5382 23.4615 58.6248 23.6614 58.7446 23.8331C58.8643 24.0022 59.0198 24.138 59.2109 24.238C59.402 24.3379 59.6338 24.3866 59.9116 24.3866" fill="white"/>
<path d="M66.5111 24.8914C66.0372 24.8914 65.7645 24.6531 65.6906 24.179H65.6804C65.6065 24.2713 65.5199 24.3635 65.4231 24.4532C65.3237 24.5429 65.2116 24.6249 65.0816 24.6992C64.9517 24.7736 64.8064 24.8453 64.6434 24.9171C64.4803 24.9888 64.2968 25.0247 64.0955 25.0247C63.8687 25.0247 63.6573 24.9991 63.4611 24.9453C63.2649 24.8914 63.0941 24.8094 62.9489 24.6967C62.8036 24.5839 62.6915 24.443 62.6074 24.2739C62.5234 24.1047 62.4826 23.9023 62.4826 23.6716C62.4826 23.3821 62.5336 23.1463 62.638 22.9644C62.7425 22.7824 62.8877 22.6338 63.0712 22.521C63.2547 22.4083 63.4763 22.3212 63.7312 22.2622C63.986 22.2033 64.2612 22.1469 64.5567 22.0982C64.7224 22.0726 64.8752 22.047 65.0179 22.0188C65.1581 21.9906 65.2804 21.9521 65.3823 21.906C65.4842 21.8599 65.5632 21.7958 65.6167 21.7164C65.6728 21.6369 65.7008 21.5319 65.7008 21.4012C65.7008 21.1244 65.6091 20.9143 65.4256 20.7657C65.2422 20.617 64.9772 20.5453 64.6332 20.5453C64.2459 20.5453 63.9554 20.6298 63.7566 20.799C63.5604 20.9681 63.456 21.2372 63.4432 21.6011H62.7247C62.7298 21.373 62.7731 21.1577 62.8546 20.9579C62.9336 20.758 63.0534 20.5863 63.2088 20.4428C63.3642 20.3018 63.563 20.1891 63.7974 20.1045C64.0344 20.0225 64.3096 19.9789 64.623 19.9789C64.8752 19.9789 65.1071 20.0046 65.3237 20.0584C65.5377 20.1096 65.7237 20.1968 65.8817 20.3121C66.0372 20.43 66.162 20.5837 66.2512 20.7785C66.3404 20.9732 66.3837 21.2115 66.3837 21.496V23.7716C66.3837 23.9689 66.4168 24.115 66.4856 24.2072C66.5289 24.2764 66.6028 24.3097 66.7073 24.3097C66.7634 24.3097 66.8245 24.2995 66.8908 24.2815H66.9188V24.8274C66.8704 24.8453 66.8143 24.8633 66.7532 24.8786C66.692 24.894 66.613 24.9017 66.5136 24.9017M64.2637 24.4455C64.5083 24.4455 64.7249 24.4045 64.9084 24.32C65.0918 24.2354 65.2422 24.1329 65.3594 24.0099C65.4766 23.8869 65.5632 23.7485 65.6218 23.5973C65.6804 23.4461 65.7085 23.3001 65.7085 23.1566V22.3417C65.5862 22.4211 65.4231 22.4903 65.2243 22.5492C65.0256 22.6082 64.8243 22.6569 64.6204 22.6927C64.437 22.7286 64.2611 22.767 64.0955 22.8029C63.9299 22.8388 63.7872 22.8952 63.6674 22.9644C63.5477 23.0361 63.4534 23.1258 63.3821 23.2386C63.3107 23.3488 63.275 23.4923 63.275 23.664C63.275 23.8254 63.3031 23.9561 63.3617 24.0586C63.4203 24.1611 63.4942 24.2405 63.5885 24.2944C63.6802 24.3507 63.7847 24.3892 63.9019 24.4097C64.0191 24.4302 64.1388 24.443 64.2611 24.443" fill="white"/>
<path d="M68.2234 20.8963C68.3635 20.6606 68.5572 20.4607 68.7993 20.2941C69.0413 20.1276 69.3216 20.043 69.6427 20.043C69.7089 20.043 69.765 20.0481 69.8083 20.0558C69.8516 20.0661 69.8975 20.0789 69.9459 20.0968V20.8195H69.9179C69.8618 20.8015 69.8109 20.7887 69.765 20.7836C69.7191 20.7785 69.658 20.7733 69.5841 20.7733C69.4006 20.7733 69.2248 20.8067 69.0592 20.8758C68.8935 20.945 68.7458 21.0399 68.6158 21.1629C68.4859 21.2859 68.3865 21.4396 68.3126 21.6216C68.2387 21.8035 68.203 22.006 68.203 22.2289V24.8889H67.4564V20.0994H68.203V20.8963H68.2234Z" fill="white"/>
<path d="M74.1655 24.8914C73.6916 24.8914 73.4189 24.6531 73.345 24.179H73.3348C73.2609 24.2713 73.1743 24.3635 73.0775 24.4532C72.9781 24.5429 72.866 24.6249 72.736 24.6992C72.6061 24.7736 72.4609 24.8453 72.2978 24.9171C72.1347 24.9888 71.9512 25.0247 71.7499 25.0247C71.5232 25.0247 71.3117 24.9991 71.1155 24.9453C70.9193 24.8914 70.7485 24.8094 70.6033 24.6967C70.4581 24.5839 70.346 24.443 70.2619 24.2739C70.1778 24.1047 70.137 23.9023 70.137 23.6716C70.137 23.3821 70.188 23.1463 70.2924 22.9644C70.3969 22.7824 70.5422 22.6338 70.7256 22.521C70.9091 22.4083 71.1308 22.3212 71.3856 22.2622C71.6404 22.2033 71.9156 22.1469 72.2111 22.0982C72.3768 22.0726 72.5296 22.047 72.6723 22.0188C72.8125 21.9906 72.9348 21.9521 73.0367 21.906C73.1386 21.8599 73.2176 21.7958 73.2711 21.7164C73.3272 21.6369 73.3552 21.5319 73.3552 21.4012C73.3552 21.1244 73.2635 20.9143 73.08 20.7657C72.8966 20.617 72.6316 20.5453 72.2876 20.5453C71.9003 20.5453 71.6098 20.6298 71.411 20.799C71.2148 20.9681 71.1104 21.2372 71.0976 21.6011H70.3791C70.3842 21.373 70.4275 21.1577 70.509 20.9579C70.588 20.758 70.7078 20.5863 70.8632 20.4428C71.0186 20.3018 71.2174 20.1891 71.4518 20.1045C71.6888 20.0225 71.964 19.9789 72.2774 19.9789C72.5297 19.9789 72.7615 20.0046 72.9781 20.0584C73.1922 20.1096 73.3782 20.1968 73.5361 20.3121C73.6916 20.43 73.8164 20.5837 73.9056 20.7785C73.9948 20.9732 74.0381 21.2115 74.0381 21.496V23.7716C74.0381 23.9689 74.0712 24.115 74.14 24.2072C74.1833 24.2764 74.2572 24.3097 74.3617 24.3097C74.4178 24.3097 74.4789 24.2995 74.5452 24.2815H74.5732V24.8274C74.5248 24.8453 74.4687 24.8633 74.4076 24.8786C74.3464 24.894 74.2674 24.9017 74.1681 24.9017M71.9181 24.4455C72.1627 24.4455 72.3793 24.4045 72.5628 24.32C72.7462 24.2354 72.8966 24.1329 73.0138 24.0099C73.131 23.8869 73.2176 23.7485 73.2762 23.5973C73.3348 23.4461 73.3629 23.3001 73.3629 23.1566V22.3417C73.2406 22.4211 73.0775 22.4903 72.8787 22.5492C72.68 22.6082 72.4787 22.6569 72.2748 22.6927C72.0914 22.7286 71.9156 22.767 71.7499 22.8029C71.5843 22.8388 71.4416 22.8952 71.3219 22.9644C71.2021 23.0361 71.1078 23.1258 71.0365 23.2386C70.9651 23.3488 70.9295 23.4923 70.9295 23.664C70.9295 23.8254 70.9575 23.9561 71.0161 24.0586C71.0747 24.1611 71.1486 24.2405 71.2429 24.2944C71.3346 24.3507 71.4391 24.3892 71.5563 24.4097C71.6735 24.4302 71.7933 24.443 71.9156 24.443" fill="white"/>
<path d="M78.3775 25.0196C77.7201 25.0196 77.213 24.8735 76.8563 24.5788C76.4995 24.2867 76.3034 23.8664 76.2677 23.3231H77.0321C77.0576 23.5333 77.1085 23.7075 77.1901 23.8408C77.2691 23.9766 77.3684 24.0842 77.4882 24.1662C77.608 24.2457 77.7456 24.3046 77.8984 24.3379C78.0513 24.3712 78.2169 24.3892 78.3953 24.3892C78.7877 24.3892 79.0706 24.3123 79.2438 24.1611C79.4146 24.0099 79.5012 23.8203 79.5012 23.5973C79.5012 23.4615 79.4782 23.3488 79.4324 23.2565C79.3865 23.1668 79.3126 23.0899 79.2107 23.0284C79.1088 22.9669 78.9814 22.9131 78.8234 22.8696C78.668 22.826 78.4769 22.7799 78.2577 22.7312C78.0233 22.6825 77.7991 22.6287 77.585 22.5723C77.371 22.5159 77.1799 22.4365 77.0194 22.334C76.8563 22.2315 76.7263 22.0956 76.627 21.9291C76.5276 21.7625 76.4792 21.5472 76.4792 21.2859C76.4792 20.8835 76.6244 20.5606 76.9174 20.3223C77.2079 20.084 77.6334 19.9636 78.194 19.9636C78.7903 19.9636 79.2362 20.0968 79.5343 20.3608C79.8324 20.6273 80.0082 20.9937 80.0643 21.4627H79.2999C79.2642 21.1475 79.1546 20.9168 78.9763 20.7733C78.7979 20.6273 78.5304 20.5555 78.1736 20.5555C77.8169 20.5555 77.585 20.6222 77.4372 20.7554C77.2895 20.8887 77.2156 21.0527 77.2156 21.2449C77.2156 21.3756 77.2436 21.4832 77.2996 21.5652C77.3557 21.6498 77.4372 21.7189 77.5494 21.7753C77.6589 21.8317 77.794 21.8778 77.9545 21.9137C78.115 21.9521 78.2959 21.9906 78.4972 22.0341C78.7368 22.0828 78.9635 22.1392 79.175 22.1982C79.3865 22.2571 79.5751 22.3417 79.7382 22.4493C79.9012 22.5569 80.0286 22.6979 80.1204 22.8721C80.2121 23.0464 80.258 23.2719 80.258 23.5512C80.258 23.7921 80.2121 24.0048 80.1204 24.1893C80.0286 24.3712 79.8987 24.525 79.7331 24.6454C79.5674 24.7659 79.3687 24.8581 79.1394 24.9196C78.91 24.9811 78.6552 25.0119 78.38 25.0119" fill="white"/>
<path d="M83.094 25.0196C82.7372 25.0196 82.4187 24.9529 82.1359 24.8197C81.8531 24.6864 81.611 24.5045 81.4122 24.2764C81.2135 24.0483 81.0581 23.7793 80.951 23.4743C80.844 23.1668 80.7905 22.8414 80.7905 22.4954C80.7905 22.1495 80.844 21.8214 80.951 21.5165C81.0581 21.209 81.2109 20.9425 81.4122 20.7144C81.611 20.4863 81.8531 20.3044 82.1359 20.1711C82.4187 20.0379 82.7372 19.9713 83.094 19.9713C83.4507 19.9713 83.7692 20.0379 84.052 20.1711C84.3349 20.3044 84.5744 20.4838 84.7757 20.7144C84.9744 20.9425 85.1273 21.2115 85.2318 21.5165C85.3363 21.824 85.3898 22.1495 85.3898 22.4954C85.3898 22.8414 85.3363 23.1694 85.2318 23.4743C85.1273 23.7818 84.9744 24.0483 84.7757 24.2764C84.5769 24.5045 84.3349 24.6864 84.052 24.8197C83.7692 24.9529 83.4507 25.0196 83.094 25.0196ZM83.094 24.3892C83.3462 24.3892 83.5679 24.3405 83.7565 24.2405C83.9476 24.1406 84.1056 24.0073 84.2355 23.8357C84.3655 23.6665 84.4623 23.4666 84.526 23.236C84.5897 23.0079 84.6228 22.7594 84.6228 22.4928C84.6228 22.2263 84.5897 21.9778 84.526 21.7497C84.4623 21.5216 84.3655 21.3192 84.2355 21.1449C84.1056 20.9707 83.9476 20.8348 83.7565 20.7375C83.5654 20.6375 83.3437 20.5888 83.094 20.5888C82.8443 20.5888 82.62 20.6375 82.4264 20.7375C82.2327 20.8374 82.0722 20.9732 81.9422 21.1449C81.8123 21.3192 81.7155 21.5191 81.6517 21.7497C81.5881 21.9778 81.5549 22.2263 81.5549 22.4928C81.5549 22.7594 81.5881 23.0079 81.6517 23.236C81.7155 23.4641 81.8123 23.664 81.9422 23.8357C82.0722 24.0048 82.2327 24.1406 82.4264 24.2405C82.62 24.3405 82.8417 24.3892 83.094 24.3892Z" fill="white"/>
<path d="M86.8702 20.7298H86.888C87.0588 20.5017 87.2677 20.3172 87.5098 20.1788C87.7518 20.0404 88.05 19.9713 88.3991 19.9713C88.8959 19.9713 89.2883 20.1019 89.5737 20.3659C89.8591 20.6298 90.0018 21.0117 90.0018 21.5139V24.8889H89.2552V21.5754C89.2552 21.2602 89.1609 21.0168 88.9698 20.8502C88.7787 20.6837 88.5163 20.5991 88.1774 20.5991C87.9863 20.5991 87.813 20.6324 87.6525 20.6965C87.4919 20.7605 87.3543 20.8528 87.2371 20.9655C87.1199 21.0809 87.0307 21.2192 86.9645 21.3832C86.9008 21.5472 86.8677 21.7292 86.8677 21.9265V24.8863H86.1211V20.0968H86.8677V20.7272L86.8702 20.7298ZM88.6488 19.3229C88.5392 19.3229 88.4296 19.3075 88.3252 19.2768C88.2207 19.246 88.1213 19.2127 88.0296 19.1743C87.9302 19.1384 87.841 19.1025 87.7569 19.0718C87.6729 19.041 87.6015 19.0257 87.5404 19.0257C87.4716 19.0257 87.4231 19.0513 87.3875 19.1C87.3543 19.1487 87.334 19.2178 87.3289 19.305H86.7759C86.8014 19.0385 86.8702 18.8309 86.9874 18.6797C87.1046 18.5285 87.2703 18.4516 87.4843 18.4516C87.6066 18.4516 87.7162 18.467 87.8104 18.4978C87.9047 18.5285 87.9965 18.5618 88.0831 18.6003C88.1621 18.6387 88.2411 18.672 88.3175 18.7028C88.394 18.7335 88.4755 18.7489 88.5621 18.7489C88.6488 18.7489 88.7074 18.7207 88.743 18.6643C88.7762 18.6079 88.7991 18.5439 88.8118 18.4696H89.3469C89.3342 18.7053 89.2756 18.9052 89.166 19.0718C89.059 19.2383 88.8857 19.3229 88.6462 19.3229" fill="white"/>
<path d="M94.7208 24.8914C94.2469 24.8914 93.9742 24.6531 93.9003 24.179H93.8902C93.8163 24.2713 93.7296 24.3635 93.6328 24.4532C93.5334 24.5429 93.4213 24.6249 93.2914 24.6992C93.1614 24.7736 93.0162 24.8453 92.8531 24.9171C92.69 24.9888 92.5066 25.0247 92.3053 25.0247C92.0785 25.0247 91.867 24.9991 91.6708 24.9453C91.4746 24.8914 91.3039 24.8094 91.1586 24.6967C91.0134 24.5839 90.9013 24.443 90.8172 24.2739C90.7331 24.1047 90.6923 23.9023 90.6923 23.6716C90.6923 23.3821 90.7433 23.1463 90.8478 22.9644C90.9522 22.7824 91.0975 22.6338 91.2809 22.521C91.4644 22.4083 91.6861 22.3212 91.9409 22.2622C92.1957 22.2033 92.4709 22.1469 92.7665 22.0982C92.9321 22.0726 93.085 22.047 93.2277 22.0188C93.3678 21.9906 93.4901 21.9521 93.592 21.906C93.694 21.8599 93.7729 21.7958 93.8264 21.7164C93.8825 21.6369 93.9105 21.5319 93.9105 21.4012C93.9105 21.1244 93.8188 20.9143 93.6353 20.7657C93.4519 20.617 93.1869 20.5453 92.8429 20.5453C92.4556 20.5453 92.1651 20.6298 91.9664 20.799C91.7702 20.9681 91.6657 21.2372 91.6529 21.6011H90.9344C90.9395 21.373 90.9828 21.1577 91.0643 20.9579C91.1433 20.758 91.2631 20.5863 91.4185 20.4428C91.574 20.3018 91.7727 20.1891 92.0071 20.1045C92.2441 20.0225 92.5193 19.9789 92.8327 19.9789C93.085 19.9789 93.3168 20.0046 93.5334 20.0584C93.7475 20.1096 93.9335 20.1968 94.0915 20.3121C94.2469 20.43 94.3717 20.5837 94.4609 20.7785C94.5501 20.9732 94.5934 21.2115 94.5934 21.496V23.7716C94.5934 23.9689 94.6265 24.115 94.6953 24.2072C94.7387 24.2764 94.8126 24.3097 94.917 24.3097C94.9731 24.3097 95.0342 24.2995 95.1005 24.2815H95.1285V24.8274C95.0801 24.8453 95.024 24.8633 94.9629 24.8786C94.9017 24.894 94.8228 24.9017 94.7234 24.9017M92.4709 24.4455C92.7155 24.4455 92.9321 24.4045 93.1155 24.32C93.299 24.2354 93.4493 24.1329 93.5666 24.0099C93.6838 23.8869 93.7704 23.7485 93.829 23.5973C93.8876 23.4461 93.9156 23.3001 93.9156 23.1566V22.3417C93.7933 22.4211 93.6302 22.4903 93.4315 22.5492C93.2327 22.6082 93.0315 22.6569 92.8276 22.6927C92.6441 22.7286 92.4683 22.767 92.3027 22.8029C92.1371 22.8388 91.9944 22.8952 91.8746 22.9644C91.7549 23.0361 91.6606 23.1258 91.5892 23.2386C91.5179 23.3488 91.4822 23.4923 91.4822 23.664C91.4822 23.8254 91.5103 23.9561 91.5689 24.0586C91.6275 24.1611 91.7014 24.2405 91.7956 24.2944C91.8874 24.3507 91.9918 24.3892 92.109 24.4097C92.2263 24.4302 92.346 24.443 92.4683 24.443" fill="white"/>
<path d="M96.4331 20.8963C96.5733 20.6606 96.7669 20.4607 97.009 20.2941C97.2511 20.1276 97.5314 20.043 97.8524 20.043C97.9187 20.043 97.9747 20.0481 98.018 20.0558C98.0614 20.0661 98.1072 20.0789 98.1556 20.0968V20.8195H98.1276C98.0715 20.8015 98.0206 20.7887 97.9747 20.7836C97.9289 20.7785 97.8677 20.7733 97.7938 20.7733C97.6103 20.7733 97.4345 20.8067 97.2689 20.8758C97.1033 20.945 96.9555 21.0399 96.8255 21.1629C96.6956 21.2859 96.5962 21.4396 96.5223 21.6216C96.4484 21.8035 96.4128 22.006 96.4128 22.2289V24.8889H95.6662V20.0994H96.4128V20.8963H96.4331Z" fill="white"/>
<path d="M99.0602 23.974H98.1658V24.8914H99.0602V23.974Z" fill="white"/>
</svg>
