<svg width="26" height="25" viewBox="0 0 26 25" fill="none" xmlns="http://www.w3.org/2000/svg">
<g clip-path="url(#clip0_628_14)">
<path d="M25.0879 11.9687C24.9761 8.83821 23.6624 5.90334 21.4263 3.72315C19.1902 1.54296 16.1994 0.285156 13.0689 0.285156H13.013C10.9167 0.285156 8.84828 0.816228 7.00351 1.87837C5.18668 2.91256 3.64937 4.42193 2.58723 6.23875C1.49713 8.02763 0.910159 10.096 0.882207 12.1923C0.854256 14.2887 1.35738 16.385 2.36362 18.2298L1.30147 24.6306C1.30147 24.6306 1.30147 24.6306 1.30147 24.6586C1.30147 24.6586 1.30147 24.6586 1.30147 24.6865C1.30147 24.7145 1.30147 24.6865 1.32943 24.6865C1.32943 24.6865 1.32943 24.6865 1.35738 24.6865L7.70229 23.289C9.3514 24.0716 11.1403 24.4909 12.9571 24.4909H13.2925C14.8857 24.4349 16.451 24.0716 17.9324 23.4287C19.3859 22.7579 20.6996 21.8355 21.7897 20.6615C22.8798 19.4876 23.7462 18.118 24.3053 16.6366C24.8643 15.1272 25.1158 13.534 25.0599 11.9408L25.0879 11.9687ZM13.2925 22.3945H13.013C11.4198 22.3945 9.82657 22.0032 8.40107 21.2765L8.06565 21.1088L3.76118 22.115L4.54381 17.7546L4.34815 17.4472C3.48166 15.9378 3.00649 14.2328 2.97854 12.4998C2.97854 10.7668 3.39781 9.03387 4.23635 7.5245C5.07488 6.01514 6.30473 4.72939 7.78614 3.83495C9.26755 2.94052 10.9726 2.43739 12.7055 2.38149H12.9851C15.6125 2.38149 18.1281 3.41568 20.0008 5.26046C21.8735 7.10524 22.9357 9.62084 22.9636 12.2482C22.9916 14.8757 22.0133 17.4192 20.1964 19.3199C18.3796 21.2206 15.892 22.3386 13.2646 22.4225L13.2925 22.3945Z" fill="white"/>
<path d="M8.79379 6.54639C8.65404 6.54639 8.48633 6.57434 8.34657 6.63024C8.20682 6.68614 8.09501 6.77 7.98321 6.8818C7.7037 7.18926 6.89311 7.88804 6.83721 9.3974C6.78131 10.9068 7.84345 12.3602 7.98321 12.5838C8.12296 12.7795 9.99569 16.0218 13.0424 17.3355C14.8312 18.1182 15.6139 18.23 16.1449 18.23C16.3686 18.23 16.5083 18.23 16.676 18.202C17.235 18.1741 18.4928 17.5312 18.7724 16.8324C19.0519 16.1336 19.0798 15.5187 18.996 15.3789C18.9121 15.2671 18.7164 15.1553 18.4369 15.0156C18.1295 14.8479 16.676 14.0652 16.3965 13.9534C16.2847 13.8975 16.1729 13.8696 16.0611 13.8696C15.9772 13.8696 15.9213 13.8696 15.8654 13.9255C15.8095 13.9534 15.7536 14.0093 15.6977 14.0652C15.4462 14.3727 14.8871 15.0435 14.6915 15.2392C14.6635 15.2951 14.6076 15.323 14.5517 15.351C14.4958 15.351 14.4399 15.3789 14.3561 15.4069C14.2443 15.4069 14.1325 15.3789 14.0207 15.323C13.1262 14.9317 12.3156 14.4007 11.6169 13.7298C10.974 13.087 10.415 12.3602 9.99569 11.5776C9.82798 11.2701 9.99569 11.1024 10.1354 10.9627C10.2752 10.8229 10.4429 10.6273 10.6106 10.4316C10.7504 10.2918 10.8342 10.1241 10.9181 9.92848C10.974 9.84462 10.974 9.76077 10.974 9.64896C10.974 9.56511 10.974 9.45331 10.8901 9.3974C10.8063 9.2297 10.2752 7.72033 10.0236 7.10541C9.82798 6.57434 9.57642 6.57434 9.35281 6.54639C9.18511 6.54639 8.9615 6.54639 8.76584 6.54639" fill="white"/>
</g>
<defs>
<clipPath id="clip0_628_14">
<rect width="24.2336" height="24.4293" fill="white" transform="translate(0.883179 0.285156)"/>
</clipPath>
</defs>
</svg>
